<svg id="Icons" xmlns="http://www.w3.org/2000/svg" viewBox="0 0 42 31">
    <defs>
        <style>
            .vps {
            fill: #323c46;
            stroke-width: 0px;
            }
        </style>
    </defs>
    <path id="VPS" class="vps" d="M35.97,13.24c-.37-4.08-3.79-7.28-7.97-7.28-1.24,0-2.43.29-3.48.8-1.9-2-4.6-3.25-7.58-3.25-5.46,0-9.91,4.23-10.41,9.55-3.02.93-5.21,3.74-5.21,7.06,0,4.08,3.31,7.39,7.39,7.39h8.79c1.64,0,2.97-1.33,2.97-2.97v-9.34c0-1.64-1.33-2.97-2.97-2.97h-3.89c-1.64,0-2.97,1.33-2.97,2.97v4.92c0,1.64,1.33,2.97,2.97,2.97h1.51c.69,0,1.25-.56,1.25-1.25s-.56-1.25-1.25-1.25h-1.51c-.26,0-.47-.21-.47-.47v-4.92c0-.26.21-.47.47-.47h3.89c.26,0,.47.21.47.47v9.34c0,.26-.21.47-.47.47h-7.01s-1.78,0-1.78,0c-1.35,0-2.57-.55-3.46-1.43-.89-.89-1.43-2.1-1.43-3.46,0-2.44,1.78-4.46,4.11-4.83.61-.1,1.05-.62,1.05-1.23,0-2.2.89-4.21,2.34-5.67,1.45-1.46,3.43-2.37,5.63-2.37,2.57,0,4.85,1.22,6.31,3.11.4.52,1.14.64,1.69.28.88-.59,1.92-.93,3.06-.93,1.52,0,2.89.61,3.89,1.61,1,1,1.61,2.37,1.61,3.89v.16s0,.02,0,.02h0c0,.58.39,1.08.95,1.21,2.13.52,3.72,2.45,3.72,4.75,0,1.35-.55,2.57-1.43,3.46-.89.89-2.1,1.43-3.46,1.43h-8.49c-.26,0-.47-.21-.47-.47v-9.34c0-.26.21-.47.47-.47h3.89c.26,0,.47.21.47.47v4.92c0,.26-.21.47-.47.47h-1.51c-.69,0-1.25.56-1.25,1.25s.56,1.25,1.25,1.25h1.51c1.64,0,2.97-1.33,2.97-2.97v-4.92c0-1.64-1.33-2.97-2.97-2.97h-3.89c-1.64,0-2.97,1.33-2.97,2.97v9.34c0,1.64,1.33,2.97,2.97,2.97h8.49c4.08,0,7.39-3.31,7.39-7.39,0-3.13-1.95-5.79-4.7-6.87Z"></path>
</svg>