<svg id="Icons" xmlns="http://www.w3.org/2000/svg" viewBox="0 0 42 31">
    <defs>
        <style>
            .cls-cpanel {
            fill: #323c46;
            stroke-width: 0px;
            }
        </style>
    </defs>
    <g id="cPanel" data-name="cPanel">
        <path class="cls-cpanel" d="M12.85,9.86h6.28l-.97,3.72c-.13.5-.43.94-.83,1.25-.41.31-.91.48-1.42.47h-2.91c-.64,0-1.26.2-1.76.58-.52.4-.89.95-1.07,1.58-.13.46-.14.95-.04,1.42.09.43.28.83.54,1.18.26.35.61.63,1,.82.41.21.87.31,1.33.31h1.78c.32,0,.63.15.82.41.21.25.28.59.18.9l-1.11,4.11h-1.94c-1.28.01-2.55-.29-3.69-.88-1.09-.56-2.04-1.35-2.79-2.32-1.54-2.02-2.07-4.63-1.42-7.09l.11-.41c.24-.88.62-1.71,1.13-2.46.49-.74,1.1-1.39,1.81-1.93.7-.53,1.49-.95,2.32-1.23.86-.3,1.76-.46,2.67-.46h0ZM16.02,26.62l5.48-20.52c.13-.5.43-.94.83-1.25.4-.31.9-.48,1.42-.47h5.81c1.28-.01,2.55.29,3.69.88,2.21,1.13,3.79,3.19,4.32,5.61.28,1.25.24,2.56-.11,3.79l-.11.41c-.24.87-.61,1.71-1.11,2.46-1.51,2.28-4.05,3.64-6.78,3.64h-5.03l1-3.75c.14-.49.43-.92.83-1.23.4-.31.9-.48,1.42-.47h1.61c1.34,0,2.51-.9,2.84-2.2.13-.44.14-.91.04-1.36-.09-.43-.28-.83-.54-1.18-.27-.35-.61-.63-1-.83-.41-.21-.87-.32-1.33-.32h-3.12l-4.06,15.1c-.14.49-.43.92-.83,1.23-.4.31-.89.48-1.39.47h-3.86Z"></path>
    </g>
</svg>