<svg id="Icons" xmlns="http://www.w3.org/2000/svg" viewBox="0 0 42 31">
    <defs>
        <style>
            .cls-1-ds {
            fill: #323c46;
            stroke-width: 0px;
            }
        </style>
    </defs>
    <path id="Dedicated_Server" data-name="Dedicated Server" class="cls-1-ds" d="M34.02,15.5c0,1.17-.95,2.13-2.13,2.13s-2.13-.95-2.13-2.13.95-2.13,2.13-2.13,2.13.95,2.13,2.13ZM8.88,10.7v9.61c0,.65.53,1.18,1.18,1.18s1.18-.53,1.18-1.18v-9.61c0-.65-.53-1.18-1.18-1.18s-1.18.53-1.18,1.18M15.64,10.7v13.51c0,1.39,1.13,2.52,2.52,2.52h19.24c2.13,0,3.86-1.73,3.86-3.86v-14.72c0-2.13-1.73-3.86-3.86-3.86H4.6c-2.13,0-3.86,1.73-3.86,3.86h0v14.72c0,2.13,1.73,3.86,3.86,3.86h5.43c.65,0,1.18-.53,1.18-1.18s-.53-1.18-1.18-1.18h-5.43c-.83,0-1.5-.67-1.5-1.5v-14.72c0-.83.67-1.5,1.5-1.5h32.8c.83,0,1.5.67,1.5,1.5v14.72c0,.83-.67,1.5-1.5,1.5h-19.24c-.09,0-.16-.07-.16-.16v-13.51c0-.65-.53-1.18-1.18-1.18s-1.18.53-1.18,1.18h0Z"></path>
</svg>