<svg id="Icons" xmlns="http://www.w3.org/2000/svg" viewBox="0 0 42 31">
    <defs>
        <style>
            .cls-domains {
            fill: #323c46;
            stroke-width: 0px;
            }
        </style>
    </defs>
    <path id="Domains" class="cls-domains" d="M31.76,10.66H10.24c-.69,0-1.25-.56-1.25-1.25s.56-1.25,1.25-1.25h21.51c.69,0,1.25.56,1.25,1.25s-.56,1.25-1.25,1.25ZM38.65,7.65v15.7c0,2.21-1.79,4.01-4.01,4.01H7.36c-2.21,0-4.01-1.79-4.01-4.01V7.65c0-2.21,1.79-4.01,4.01-4.01h27.29c2.21,0,4.01,1.79,4.01,4.01ZM36.2,7.65c0-.86-.7-1.55-1.55-1.55H7.36c-.86,0-1.55.7-1.55,1.55v15.7c0,.86.7,1.55,1.55,1.55h27.29c.86,0,1.55-.7,1.55-1.55V7.65ZM8.89,17.86c-.68,0-1.23.54-1.23,1.22h0c0,.7.56,1.24,1.23,1.24.67,0,1.23-.54,1.23-1.23h0c-.01-.69-.56-1.23-1.23-1.23ZM13.73,15.3c.26,0,.43.08.57.2.13.12.23.29.27.51.03.18.19.31.37.31h1.35c.1,0,.2-.04.27-.12.07-.08.11-.18.1-.28-.05-.74-.38-1.39-.91-1.83-.53-.44-1.24-.68-2.04-.68-.97,0-1.8.36-2.37.99-.57.63-.87,1.5-.87,2.49,0,.98.29,1.85.86,2.48.57.63,1.4.99,2.39.99.83,0,1.54-.25,2.06-.7.52-.45.83-1.09.89-1.82,0-.1-.03-.21-.1-.28-.07-.08-.17-.12-.28-.12h-1.35c-.18,0-.34.13-.37.31-.05.25-.15.42-.29.53-.14.11-.31.18-.55.18-.34,0-.57-.12-.76-.37-.19-.25-.32-.66-.32-1.22,0-.55.13-.95.32-1.2.19-.25.42-.36.76-.37ZM23.11,14.39c.57.62.88,1.5.88,2.5,0,1-.3,1.87-.88,2.5-.57.62-1.41.97-2.37.97-.97,0-1.8-.35-2.37-.97-.57-.62-.88-1.5-.88-2.5,0-1,.3-1.88.88-2.5.57-.63,1.41-.98,2.37-.97.97,0,1.8.35,2.37.97ZM21.51,18.07c.18-.27.3-.69.29-1.18,0-.5-.11-.92-.29-1.19-.19-.27-.4-.4-.76-.41-.37,0-.59.14-.78.41-.18.27-.3.69-.3,1.19,0,.5.11.92.29,1.18.19.26.41.4.78.41.36,0,.58-.14.76-.41ZM32.03,13.41c-.74,0-1.4.28-1.81.78-.12-.16-.26-.3-.43-.42-.34-.24-.77-.36-1.24-.36-.52,0-.98.17-1.35.46h0c0-.1-.04-.2-.11-.27-.07-.07-.17-.11-.27-.11h-1.35c-.1,0-.2.04-.27.11-.07.07-.11.17-.11.27v6c0,.1.04.2.11.27.07.07.17.11.27.11h1.41c.1,0,.2-.04.27-.11.07-.07.11-.17.11-.27v-3.65c0-.29.09-.5.22-.64.13-.14.3-.22.5-.22.22,0,.36.07.46.17.1.1.17.25.17.48v3.87c0,.1.04.2.11.27.07.07.17.11.27.11h1.39c.1,0,.2-.04.27-.11.07-.07.11-.17.11-.27v-3.74c0-.27.08-.45.19-.57.11-.12.27-.2.52-.2.21,0,.37.06.47.16.1.1.18.25.18.55v3.81c0,.1.04.2.11.27.07.07.17.11.27.11h1.42c.1,0,.2-.04.27-.11.07-.07.11-.17.11-.27v-4.03c0-.74-.22-1.36-.63-1.79-.41-.43-.99-.64-1.62-.64Z"></path>
</svg>