<svg id="Icons" xmlns="http://www.w3.org/2000/svg" viewBox="0 0 42 31">
    <defs>
        <style>
            .object-storage {
            fill: #323c46;
            stroke-width: 0px;
            }
        </style>
    </defs>
    <path id="Storage" class="object-storage" d="M36.07,7.56c-.36-.23-.82-.25-1.21-.07l-13.83,6.65-11.77-5.62,11.45-5.44.09-.05.2-.05.2.05.13.06,9.05,3.92c.63.27,1.37-.02,1.64-.65.27-.63-.02-1.37-.65-1.64L22.32.81h0c-.41-.2-.86-.32-1.31-.32-.47,0-.93.12-1.35.35h0S6.89,6.89,6.89,6.89l-.09.05c-.9.52-1.45,1.47-1.45,2.51v12.12c0,1.03.55,1.99,1.45,2.51l.09.05,12.76,6.06h0c.42.22.89.34,1.35.34.47,0,.93-.12,1.35-.35h0s12.76-6.05,12.76-6.05l.09-.05c.9-.52,1.45-1.47,1.45-2.51v-12.94c0-.43-.22-.83-.58-1.06ZM34.15,21.56c0,.14-.07.26-.19.33l-11.71,5.56v-11.13l11.9-5.72v10.95ZM7.85,21.56v-10.94l11.9,5.68v11.16l-11.71-5.56c-.12-.07-.19-.2-.19-.33Z"></path>
</svg>