<svg id="Icons" xmlns="http://www.w3.org/2000/svg" viewBox="0 0 42 31">
    <defs>
        <style>
            .cls-1-outlet {
            fill: #323c46;
            stroke-width: 0px;
            }
        </style>
    </defs>
    <path id="Outlet_Server" data-name="Outlet Server" class="cls-1-outlet" d="M41.26,8.14v14.72c0,2.13-1.73,3.86-3.86,3.86H15.16c-1.39,0-2.52-1.13-2.52-2.52v-13.51c0-.65.53-1.18,1.18-1.18s1.18.53,1.18,1.18v13.51c0,.09.07.16.16.16h22.24c.83,0,1.5-.67,1.5-1.5v-14.72c0-.83-.67-1.5-1.5-1.5H4.6c-.83,0-1.5.67-1.5,1.5v14.72c0,.83.67,1.5,1.5,1.5h3.43c.65,0,1.18.53,1.18,1.18s-.53,1.18-1.18,1.18h-3.43c-2.13,0-3.86-1.73-3.86-3.86v-14.72c0-2.13,1.73-3.86,3.86-3.86h32.8c2.13,0,3.86,1.73,3.86,3.86ZM8.06,9.52c-.65,0-1.18.53-1.18,1.18v9.61c0,.65.53,1.18,1.18,1.18s1.18-.53,1.18-1.18v-9.61c0-.65-.53-1.18-1.18-1.18ZM30.86,8.76l-.1.05-9,13.09v.13s.1.07.1.07h2.67l.1-.05,9-13.09v-.13s-.1-.07-.1-.07h-2.67ZM26.54,11.34v.71c0,.82-.27,1.57-.78,2.12-.51.55-1.28.89-2.23.89-.96,0-1.72-.34-2.23-.9-.51-.55-.77-1.31-.77-2.12h0v-.69h0c0-1.64,1.11-3.04,3-3.03.97,0,1.73.34,2.24.89.51.55.77,1.31.77,2.12v.02ZM24.42,12.03h0v-.69h0s0-.03,0-.03c0-.29-.06-.58-.19-.78-.14-.2-.34-.33-.7-.33-.34,0-.54.14-.68.35-.14.21-.2.51-.2.8v.69c0,.3.06.59.2.8.14.21.34.34.68.34.35,0,.55-.13.69-.33.14-.2.2-.49.2-.78v-.02ZM31.83,15.8c.97,0,1.73.34,2.24.9.51.55.77,1.31.77,2.12v.02h0v.69h0v.02c0,.81-.27,1.57-.78,2.12-.51.55-1.27.9-2.23.9-.97,0-1.72-.35-2.23-.91-.51-.56-.77-1.32-.77-2.13h0v-.69h0c0-.81.27-1.57.78-2.13.51-.56,1.27-.91,2.22-.9ZM31.83,17.68c-.35,0-.55.14-.69.35-.14.21-.2.51-.21.8v.69c0,.29.06.58.2.79.14.21.34.34.7.35.35,0,.55-.13.69-.33.14-.2.2-.49.2-.78v-.02s0,0,0,0v-.69h0s0-.03,0-.03c0-.29-.05-.58-.19-.79-.13-.2-.33-.33-.7-.34Z"></path>
</svg>