<svg id="Icons" xmlns="http://www.w3.org/2000/svg" viewBox="0 0 42 31">
    <defs>
        <style>
            .cls-plesk {
            fill: #323c46;
            stroke-width: 0px;
            }
        </style>
    </defs>
    <path id="Plesk" class="cls-plesk" d="M5.28,19.61s0,0,0,0,0,0,0,0h0ZM8.06,17.23c-.27.58-.66,1.09-1.15,1.5h0s0,0,0,0c-.48.4-1.03.69-1.62.87-.59.18-1.2.27-1.82.27h0c-.33,0-.66-.03-.99-.08h0s0,0,0,0c-.22-.03-.43-.09-.64-.14l-.02,4.34v.25H.07v-13.46l.17-.06c1.02-.32,2.08-.49,3.15-.5h0,.08c.68,0,1.36.12,2,.36h0c.6.22,1.15.56,1.62,1h0s0,0,0,0c.45.43.81.96,1.04,1.54h0s0,0,0,0c.24.6.36,1.23.36,1.87v.05s0,.13,0,.13c0,.7-.15,1.39-.43,2.03h0s0,0,0,0ZM6.57,15.05h0s0-.17,0-.17c0-.8-.29-1.58-.81-2.19-.55-.57-1.3-.88-2.08-.88h-.18s0,0,0,0h-.02c-.31,0-.63.02-.94.06h0s0,0,0,0c-.25.03-.49.1-.73.17v5.97c.23.07.46.14.69.19h0s0,0,0,0c.27.06.56.09.84.09h.01s.17,0,.17,0c.8,0,1.58-.3,2.18-.84.57-.6.89-1.39.89-2.21v-.19s0-.01,0-.01ZM12.01,19.8h.25V6.74h-1.76v13.06h1.51ZM14.55,16.91s0,0,0,0c0,0,0,0,0,0h0ZM16.84,19.48h0s0,0,0,0h0ZM16.92,10.56s0,0,0,0c0,0,0,0,0,0h0ZM21.75,11.55c.68.94,1.04,2.07,1.04,3.22,0,.16,0,.31-.02.47l-.02.23h-6.69c.04.74.31,1.44.8,2,.5.53,1.2.82,1.92.82h.12s0,0,0,0h0s.05,0,.05,0c.44,0,.88-.08,1.29-.24.41-.17.78-.43,1.07-.77l.18-.2.94.99.16.17-.16.17c-.43.47-.95.84-1.54,1.09h0s0,0,0,0c-.62.25-1.29.37-1.96.37h-.13s-.09,0-.09,0c-.65,0-1.29-.13-1.89-.39h0c-.55-.24-1.04-.6-1.43-1.05h0s0,0,0,0c-.38-.45-.67-.96-.85-1.52-.19-.57-.28-1.16-.28-1.76v-.03s0-.12,0-.12c0-.69.11-1.37.34-2.02h0s0,0,0,0c.2-.57.52-1.09.93-1.52h0s0,0,0,0c.39-.4.86-.71,1.38-.91.52-.2,1.07-.31,1.63-.32h0s0,0,.01,0c0,0,0,0,0,0h0c.09,0,.17,0,.26,0,1.11,0,2.17.47,2.91,1.3h0s0,.02,0,.02ZM16.36,13.21h0s0,0,0,0c-.11.22-.18.46-.23.7h4.87c-.02-.24-.06-.48-.14-.71h0s0,0,0,0c-.09-.27-.24-.52-.43-.73-.2-.21-.45-.38-.72-.48-.35-.13-.72-.19-1.08-.19s-.73.06-1.08.19c-.26.1-.49.26-.68.46-.2.23-.36.49-.49.76ZM26.13,14.91s0,0,0,0c0,0,0,0,0,0h0ZM27.08,15.4s0,0,0,0c0,0,0,0,0,0h0ZM28.21,11.79h.17s.02,0,.02,0h.02s.07,0,.07,0c.38,0,.76.09,1.11.25.36.19.67.46.92.78l.12.33,1.37-1.26-.15-.18c-.42-.51-.94-.92-1.55-1.2h0s0,0,0,0c-.56-.23-1.15-.34-1.75-.34h-.08s-.16,0-.16,0c-.79,0-1.56.24-2.22.69h0s0,0,0,0c-.61.45-.97,1.17-.97,1.92v.11s0,.08,0,.08c0,.39.1.78.29,1.13h0s0,0,0,0c.18.31.43.58.72.79.29.21.61.37.95.49.34.12.68.23,1.02.33h0s0,0,0,0c.3.08.58.17.84.26h0s0,0,0,0c.23.07.45.18.66.31h0s0,0,0,0c.16.1.3.24.41.4.09.16.14.33.14.51v.04s0,0,0,0h0c0,.29-.14.55-.38.71-.35.22-.76.34-1.18.34h-.17s-.01,0-.01,0h-.01s-.05,0-.05,0c-.9,0-1.75-.43-2.28-1.15l-.16-.22-1.37,1.21.16.19c.45.52,1.02.94,1.65,1.22h0s0,0,0,0c.63.24,1.3.37,1.97.37.47,0,.93-.06,1.39-.18.41-.11.8-.29,1.15-.54h0c.33-.24.6-.55.79-.9h0c.19-.36.29-.76.29-1.17v-.04s0-.08,0-.08c0-.4-.1-.8-.3-1.15h0s0,0,0,0c-.19-.32-.45-.6-.75-.82-.3-.22-.64-.4-.99-.53h0c-.34-.13-.68-.24-1.02-.35h0s0,0,0,0c-.27-.08-.54-.17-.79-.26h0s0,0,0,0c-.22-.07-.43-.17-.63-.29h0s0,0,0,0c-.15-.09-.29-.21-.39-.36-.09-.13-.13-.27-.13-.43v-.03s0,0,0,0h0s0-.03,0-.03c0-.24.11-.47.29-.63.29-.19.64-.3.99-.3ZM29.72,19.72s0,0,0,0c0,0,0,0,0,0h0ZM30.89,15.01h0s0,0,0,0h0ZM41.93,10.33h-2.41l-3.95,3.98v-7.55h-1.75v13.04h1.75v-4.24l3.87,4.23h2.43l-4.62-4.91,4.68-4.56ZM7.31,24.26h8.06v-1.68H7.31v1.68Z"></path>
</svg>