<svg id="Icons" xmlns="http://www.w3.org/2000/svg" viewBox="0 0 42 31">
    <defs>
        <style>
            .svps {
            fill: #323c46;
            stroke-width: 0px;
            }
        </style>
    </defs>
    <path class="svps" d="M40.78,20.09c0,4.1-3.32,7.43-7.43,7.43H8.65c-4.1,0-7.43-3.32-7.43-7.43,0-3.34,2.2-6.16,5.24-7.09.51-5.33,5-9.51,10.46-9.51,3,0,5.7,1.26,7.62,3.27,1.06-.51,2.25-.8,3.5-.8,2.55,0,4.83,1.19,6.29,3.04.43.54.34,1.33-.2,1.76-.54.43-1.33.34-1.76-.2-1.02-1.28-2.58-2.09-4.34-2.09-1.14,0-2.2.34-3.08.93-.55.37-1.29.24-1.69-.28-1.47-1.9-3.76-3.13-6.35-3.13-4.42,0-8.01,3.58-8.01,8,0,.61-.44,1.13-1.05,1.23-2.34.38-4.14,2.41-4.14,4.86,0,1.36.55,2.59,1.44,3.48.9.89,2.12,1.44,3.48,1.44h24.71c1.36,0,2.59-.55,3.48-1.44.89-.9,1.44-2.12,1.44-3.48,0-1.36-.55-2.59-1.44-3.48-.9-.89-2.12-1.44-3.48-1.44H14.86s-.11.11-.11.11v5.41l.11.11h11.98l.11-.11v-2.67c0-.69.56-1.25,1.25-1.25s1.25.56,1.25,1.25v2.67c0,1.44-1.17,2.61-2.61,2.61h-11.98c-1.44,0-2.61-1.17-2.61-2.61v-5.41c0-1.44,1.17-2.61,2.61-2.61h18.49c4.1,0,7.43,3.32,7.43,7.43ZM19.16,17.99c0,1.02.83,1.84,1.84,1.84s1.84-.82,1.84-1.84-.82-1.84-1.84-1.84-1.84.82-1.84,1.84Z"></path>
</svg>