<svg id="Icons" xmlns="http://www.w3.org/2000/svg" viewBox="0 0 42 31">
    <defs>
        <style>
            .vds {
            fill: #323c46;
            stroke-width: 0px;
            }
        </style>
    </defs>
    <path id="VDS" class="vds" d="M28.1,21.85v-6.62H10.09s-.04-.01-.06-.01h-1.31c-1.35,0-2.57.55-3.46,1.43-.89.89-1.43,2.1-1.43,3.46,0,1.35.55,2.57,1.43,3.46.89.89,2.1,1.43,3.46,1.43h24.57c1.35,0,2.57-.55,3.46-1.43.89-.89,1.43-2.1,1.43-3.46,0-2.33-1.56-4.23-3.71-4.75-.57-.14-.95-.65-.94-1.23h-.02s0-.16,0-.16c0-1.52-.61-2.89-1.61-3.89-1-1-2.37-1.61-3.89-1.61-1.1,0-2.12.32-2.98.87l-.12.07-.11.05c-.53.27-1.18.12-1.55-.35l-.04-.06c-1.46-1.86-3.72-3.05-6.26-3.05-3.13,0-5.84,1.81-7.14,4.44-.31.62-1.06.87-1.67.57-.62-.31-.87-1.06-.57-1.67,1.71-3.45,5.27-5.83,9.38-5.83,2.98,0,5.67,1.26,7.58,3.26,1.05-.51,2.23-.8,3.48-.8,4.17,0,7.6,3.19,7.97,7.27,2.77,1.06,4.71,3.74,4.7,6.88,0,4.08-3.31,7.39-7.39,7.39H8.72c-4.08,0-7.39-3.31-7.39-7.39,0-4.08,3.31-7.39,7.39-7.39h1.72s.04.01.06.01h17.62c1.37,0,2.48,1.11,2.48,2.48v6.66c0,1.56-2.5,1.39-2.5-.02ZM10.12,21.83v-3.4c0-.69-.56-1.25-1.25-1.25s-1.25.56-1.25,1.25v3.4c0,.69.56,1.25,1.25,1.25s1.25-.56,1.25-1.25ZM25.48,20.13c0-1.02-.82-1.84-1.84-1.84s-1.84.82-1.84,1.84.82,1.84,1.84,1.84,1.84-.82,1.84-1.84ZM15.96,21.83v-3.4c0-.69-.56-1.25-1.25-1.25s-1.25.56-1.25,1.25v3.4c0,.69.56,1.25,1.25,1.25s1.25-.56,1.25-1.25Z"></path>
</svg>