<?xml version="1.0" encoding="UTF-8"?>
<svg version="1.2" width="196.22pt" height="95.03pt" viewBox="0 0 196.22 95.03" xmlns="http://www.w3.org/2000/svg">
	<title>AMD Epyc-Wordmark</title>
	<g fill="#211e1e" name="AMD_Logo">
		<path d="m17.637 10.117-4.6914 12.43h9.8516zm18.715 24.348h-8.582l-2.6289-6.3359h-14.305l-2.3945 6.3359h-8.4414l12.898-31.992h9.2422l14.211 31.992"/>
		<path d="m67.535 2.4727h6.9414v31.992h-7.9766v-19.984l-8.6289 10.035h-1.2188l-8.6289-10.035v19.984h-7.9766v-31.992h6.9414l10.273 11.867 10.273-11.867"/>
		<path d="m88.539 28.602h5.207c8.0195 0 10.41-5.4453 10.41-10.137 0-5.4883-2.9531-10.129-10.504-10.129h-5.1133zm6.1445-26.129c11.68 0 17.68 7.2695 17.68 16.039 0 9.1953-5.8125 15.953-18.57 15.953h-13.23v-31.992h14.121"/>
		<path d="m144.73 10.059h-16.496l-10.055-10.059h36.605v36.609l-10.055-10.059v-16.492"/>
		<path d="m128.22 26.562v-14.488l-10.352 10.352v14.492h14.488l10.352-10.355h-14.488"/>
	</g>
	<g fill="#0f0c0c" name="Epyc_Lettering">
		<path d="m0 53.41v8.3242h41.598v-8.3242h-41.598"/>
		<path d="m87.98 53.41h-33.293v8.3242h32.703c.32812 0 .58984.26562.58984.58984v7.1445c0 .32422-.26172.58984-.58984.58984h-32.703v24.973h8.3203v-16.648h24.973c4.5977 0 8.3242-3.7266 8.3242-8.3242v-8.3242c0-4.5977-3.7266-8.3242-8.3242-8.3242"/>
		<path d="m0 70.059v24.973h41.598v-8.3242h-33.273v-8.3242h33.273v-8.3242h-41.598"/>
		<path d="m124.74 69.918-11.91-16.508h-10.285l17.996 24.969v16.652h8.3164v-16.652l18.086-24.969h-10.285l-11.918 16.508"/>
		<path d="m154.57 86.699c0 4.6016 3.7266 8.332 8.3281 8.332h33.316v-8.332h-32.727c-.32813 0-.58984-.26172-.58984-.58984v-23.777c0-.32812.26172-.59375.58984-.59375h32.727v-8.3281h-33.316c-4.6016 0-8.3281 3.7305-8.3281 8.3281v24.961"/>
	</g>
</svg>
