<?xml version="1.0" standalone="no"?>
<!DOCTYPE svg PUBLIC "-//W3C//DTD SVG 20010904//EN"
 "http://www.w3.org/TR/2001/REC-SVG-20010904/DTD/svg10.dtd">
<svg version="1.0" xmlns="http://www.w3.org/2000/svg"
 width="2048.000000pt" height="2048.000000pt" viewBox="0 0 2048.000000 2048.000000"
 preserveAspectRatio="xMidYMid meet">

<g transform="translate(0.000000,2048.000000) scale(0.100000,-0.100000)"
fill="#000000" stroke="none">
<path d="M2136 20471 c-3 -5 -45 -9 -93 -10 -254 -2 -609 -120 -910 -302 -216
-131 -461 -345 -617 -539 -225 -281 -412 -650 -472 -933 -8 -40 -20 -133 -26
-207 -16 -190 -15 -16287 0 -16482 13 -156 27 -228 78 -383 169 -512 548 -990
1019 -1282 130 -81 367 -195 492 -236 123 -41 225 -62 368 -79 146 -16 16318
-16 16495 1 264 24 424 70 660 187 505 251 874 611 1116 1089 140 278 202 478
210 685 2 69 9 136 14 150 15 37 6 16169 -8 16353 -43 542 -403 1148 -912
1537 -310 237 -711 411 -988 429 -64 4 -117 12 -124 19 -15 15 -16293 18
-16302 3z m8014 -2525 c292 -35 526 -85 756 -161 636 -212 1158 -613 1575
-1208 l74 -106 3 615 2 614 1375 0 1375 0 -1 -4617 c-1 -5003 -7 -6254 -33
-6468 -35 -296 -80 -537 -146 -778 -300 -1095 -1018 -2027 -1990 -2584 -514
-295 -1153 -525 -1770 -638 -372 -68 -649 -94 -1075 -102 -1150 -21 -2149 205
-2989 676 -1124 630 -1804 1544 -2040 2741 -52 261 -86 595 -86 838 l0 69 727
6 c400 3 975 3 1278 0 l552 -6 6 -146 c16 -388 130 -728 338 -1011 35 -47 115
-137 178 -200 319 -317 689 -478 1311 -571 176 -26 530 -36 706 -20 460 42
900 185 1292 418 411 244 706 584 856 985 119 320 139 560 134 1650 l-3 687
-141 -177 c-199 -249 -287 -346 -416 -457 -454 -390 -1101 -622 -1913 -686
-327 -26 -885 1 -1293 61 -1056 157 -2023 746 -2633 1605 -139 195 -217 327
-340 570 -390 772 -594 1661 -641 2792 -27 651 35 1296 183 1888 403 1618
1376 2853 2689 3415 375 160 810 272 1224 315 177 19 691 13 876 -9z"/>
<path d="M10165 15570 c-600 -42 -1037 -222 -1377 -566 -245 -248 -413 -543
-546 -954 -157 -486 -210 -940 -199 -1714 5 -398 18 -536 72 -797 185 -888
654 -1551 1325 -1873 522 -251 1143 -273 1689 -60 578 225 1037 701 1284 1330
97 246 147 486 184 884 22 238 25 1105 5 1300 -49 474 -169 922 -351 1305
-279 586 -716 941 -1341 1089 -210 50 -508 72 -745 56z"/>
</g>
</svg>
