<?xml version="1.0" standalone="no"?>
<!DOCTYPE svg PUBLIC "-//W3C//DTD SVG 20010904//EN"
 "http://www.w3.org/TR/2001/REC-SVG-20010904/DTD/svg10.dtd">
<svg version="1.0" xmlns="http://www.w3.org/2000/svg"
 width="400.000000pt" height="400.000000pt" viewBox="0 0 400.000000 400.000000"
 preserveAspectRatio="xMidYMid meet">

<g transform="translate(0.000000,400.000000) scale(0.100000,-0.100000)"
fill="#000000" stroke="none">
<path d="M0 2000 l0 -2000 2000 0 2000 0 0 2000 0 2000 -2000 0 -2000 0 0
-2000z m1516 1065 c63 -31 83 -56 196 -240 47 -77 132 -214 188 -305 56 -91
144 -232 195 -315 161 -261 270 -437 323 -520 l51 -80 3 680 3 680 28 43 c40
62 98 86 202 86 63 0 89 -5 122 -22 50 -26 88 -79 102 -142 15 -64 15 -1736 0
-1815 -19 -105 -56 -157 -139 -194 -36 -17 -66 -21 -150 -21 -120 0 -164 15
-216 71 -18 19 -107 153 -199 299 -92 146 -188 297 -212 335 -25 39 -140 221
-256 405 l-212 335 -5 -657 -5 -656 -30 -44 c-18 -25 -49 -53 -75 -66 -39 -20
-57 -23 -136 -20 -79 3 -96 6 -132 31 -23 15 -52 46 -64 70 l-23 42 -3 899
c-2 584 1 918 8 955 25 137 136 206 314 196 48 -3 85 -12 122 -30z"/>
</g>
</svg>
