<?xml version="1.0" standalone="no"?>
<!DOCTYPE svg PUBLIC "-//W3C//DTD SVG 20010904//EN"
 "http://www.w3.org/TR/2001/REC-SVG-20010904/DTD/svg10.dtd">
<svg version="1.0" xmlns="http://www.w3.org/2000/svg"
 width="1240.000000pt" height="1240.000000pt" viewBox="0 0 1240.000000 1240.000000"
 preserveAspectRatio="xMidYMid meet">

<g transform="translate(0.000000,1240.000000) scale(0.100000,-0.100000)"
fill="#000000" stroke="none">
<path d="M4983 12370 c-48 -60 -13 -67 76 -15 34 20 61 38 61 40 0 3 -26 5
-57 4 -51 0 -61 -3 -80 -29z"/>
<path d="M5162 12354 c-23 -26 -39 -50 -36 -55 9 -15 44 -10 44 6 0 8 9 15 20
15 11 0 20 -4 20 -10 0 -14 -53 -60 -70 -60 -25 0 -43 17 -37 33 7 19 -18 41
-38 33 -21 -8 -31 -36 -15 -46 15 -9 -29 -69 -80 -109 -19 -15 -30 -32 -30
-49 0 -14 -8 -34 -17 -44 -16 -18 -17 -17 -30 13 -10 23 -10 35 -2 45 13 15 4
34 -16 34 -8 0 -18 8 -23 17 -9 15 -15 13 -60 -16 -28 -17 -53 -39 -56 -47 -4
-12 -10 -12 -26 -4 -23 12 -63 -7 -55 -27 2 -8 -7 -16 -21 -19 -23 -6 -25 -10
-20 -43 4 -20 6 -45 7 -56 0 -11 6 -29 13 -40 14 -21 29 -75 30 -110 1 -11 6
-20 11 -20 6 0 9 12 8 27 -4 37 13 78 32 78 13 0 15 -9 12 -47 -8 -78 1 -103
34 -103 16 0 29 -5 29 -11 0 -5 5 -7 10 -4 6 3 10 2 10 -3 0 -16 32 -23 47
-10 8 6 22 28 31 47 14 29 23 36 48 37 16 1 42 9 56 18 17 11 28 14 33 6 12
-20 -6 -49 -32 -52 -17 -2 -27 -10 -29 -22 -4 -28 -78 -92 -114 -100 -17 -3
-33 -14 -37 -23 -3 -10 -16 -29 -28 -43 -41 -48 -44 -69 -21 -138 15 -44 29
-68 49 -81 27 -17 27 -19 8 -24 -12 -3 -19 -1 -15 4 3 5 1 9 -4 9 -5 0 -14
-11 -21 -24 -10 -18 -10 -29 -2 -45 7 -11 16 -21 20 -21 5 0 11 -9 14 -21 5
-20 7 -20 31 -4 23 15 26 16 32 2 7 -20 -3 -37 -22 -37 -12 0 -12 -4 1 -24 11
-16 30 -27 56 -31 23 -4 55 -19 72 -35 18 -15 42 -30 55 -34 12 -4 29 -21 37
-37 9 -16 24 -29 34 -29 24 0 55 -35 47 -55 -7 -19 16 -59 55 -96 15 -14 29
-34 30 -44 6 -29 28 -29 35 -1 7 31 20 34 29 6 8 -26 31 -25 46 2 9 16 9 23 0
26 -12 4 -16 62 -3 62 4 0 12 -10 17 -22 8 -18 17 -22 42 -21 27 3 31 0 26
-15 -3 -9 14 1 38 24 72 66 380 262 445 283 33 11 93 25 134 31 41 7 80 15 85
18 6 4 30 8 54 9 52 4 115 24 122 38 2 6 12 9 22 7 27 -3 86 46 103 86 7 19
14 49 14 68 0 19 7 39 16 46 45 36 151 150 170 183 7 11 10 41 7 70 -3 35 2
67 16 109 27 77 31 314 5 364 -15 30 -11 80 13 179 l5 23 -565 0 -566 0 -3
-27 c-3 -23 -8 -27 -33 -27 -30 1 -32 4 -20 37 7 16 -4 17 -142 17 l-149 0
-42 -46z m158 22 c0 -14 -29 -31 -38 -21 -6 6 18 35 29 35 5 0 9 -6 9 -14z
m-50 -41 c0 -8 -9 -15 -20 -15 -13 0 -18 5 -14 15 4 8 12 15 20 15 8 0 14 -7
14 -15z m166 -26 c4 -7 24 -9 56 -5 42 6 53 4 77 -16 16 -13 38 -30 50 -38 11
-8 21 -19 21 -25 0 -18 -47 -58 -59 -50 -6 3 -11 1 -11 -6 0 -6 8 -9 20 -6 36
9 -5 -48 -52 -73 -24 -12 -47 -28 -51 -36 -4 -8 -15 -14 -23 -14 -8 0 -12 -5
-9 -10 3 -6 -3 -22 -14 -36 -12 -15 -21 -33 -21 -40 0 -8 -9 -14 -20 -14 -23
0 -24 4 -10 31 6 10 18 19 27 19 9 0 13 3 10 7 -4 3 -1 13 5 21 10 11 8 17 -7
28 -17 13 -17 15 -2 32 9 10 17 23 17 29 0 6 8 14 17 17 15 6 15 9 3 16 -19
12 -48 -5 -62 -36 -6 -13 -15 -24 -20 -24 -5 0 -16 -7 -24 -15 -9 -8 -27 -15
-42 -15 -25 0 -25 -1 -6 -15 10 -8 27 -15 37 -15 12 0 17 -8 17 -26 l0 -26
-42 32 c-24 18 -60 43 -80 57 -38 26 -42 32 -38 67 2 25 29 66 43 66 6 0 26
14 44 32 25 24 33 28 33 15 0 -22 16 -22 32 1 7 10 21 21 32 25 11 5 16 13 12
23 -11 29 23 49 40 23z m504 -95 c0 -8 -4 -14 -10 -14 -5 0 -10 9 -10 21 0 11
5 17 10 14 6 -3 10 -13 10 -21z m208 -81 c-3 -16 -89 -53 -121 -53 -12 0 -17
6 -15 18 2 11 25 25 63 38 63 23 78 22 73 -3z m-1290 -335 c-16 -24 -44 -45
-52 -38 -2 3 -2 17 1 33 4 22 11 27 35 27 29 0 30 -1 16 -22z m26 -242 c-10
-20 -21 -36 -26 -36 -10 0 2 54 14 58 4 2 8 11 8 20 0 11 3 13 11 5 7 -7 5
-21 -7 -47z m67 -45 c-6 -11 -11 -31 -11 -45 0 -14 -5 -26 -10 -26 -15 0 -4
98 12 117 12 15 13 14 16 -5 2 -11 -2 -30 -7 -41z m532 -105 c29 -45 63 -103
76 -131 l23 -50 -28 29 c-16 16 -39 35 -51 43 -13 9 -23 25 -23 37 0 12 -11
37 -24 57 -22 31 -56 103 -56 116 0 15 37 -30 83 -101z m-623 85 c0 -14 -18
-23 -31 -15 -8 4 -7 9 2 15 18 11 29 11 29 0z m256 -51 c-8 -8 -17 -33 -20
-55 -3 -22 -8 -49 -10 -60 -2 -11 -5 -23 -5 -27 -1 -5 -10 -8 -21 -8 -21 0
-28 24 -10 35 6 3 10 19 10 35 0 16 5 32 10 35 6 3 10 13 10 21 0 8 7 26 17
40 12 19 18 22 24 12 5 -7 2 -19 -5 -28z m-156 -70 c0 -5 -5 -10 -11 -10 -5 0
-7 5 -4 10 3 6 8 10 11 10 2 0 4 -4 4 -10z m-114 -78 c-23 -23 -33 -6 -10 19
12 13 20 16 22 9 3 -7 -3 -19 -12 -28z m1534 34 c0 -3 -4 -8 -10 -11 -5 -3
-10 -1 -10 4 0 6 5 11 10 11 6 0 10 -2 10 -4z m-940 -396 c0 -5 -5 -10 -11
-10 -5 0 -7 5 -4 10 3 6 8 10 11 10 2 0 4 -4 4 -10z m-158 -62 c-9 -9 -15 -9
-24 0 -9 9 -7 12 12 12 19 0 21 -3 12 -12z"/>
<path d="M5476 12164 c-4 -10 -1 -14 6 -12 15 5 23 28 10 28 -5 0 -13 -7 -16
-16z"/>
<path d="M9054 12368 c3 -18 10 -78 17 -133 6 -55 16 -117 21 -139 9 -36 11
-38 41 -32 18 3 83 23 145 43 114 38 114 38 179 110 36 40 69 70 74 67 5 -3 9
-26 9 -52 0 -98 8 -117 57 -141 62 -30 152 -117 174 -168 20 -47 34 -52 99
-33 54 16 58 1 21 -95 -36 -94 -51 -171 -51 -257 0 -37 -9 -82 -25 -125 -18
-46 -22 -70 -15 -77 11 -11 131 15 178 40 15 8 31 14 36 14 5 0 34 11 65 25
57 26 57 26 68 83 39 203 53 397 32 469 -7 26 -13 54 -14 62 0 8 -13 15 -30
17 -53 6 -69 11 -73 22 -2 6 19 59 47 117 54 111 62 155 35 193 l-15 22 -540
0 -540 0 5 -32z"/>
<path d="M4885 12236 c-36 -29 -31 -39 15 -26 34 10 53 28 44 42 -9 14 -28 9
-59 -16z"/>
<path d="M8615 12088 c-179 -61 -335 -130 -455 -198 -103 -59 -175 -103 -190
-116 -8 -7 -44 -37 -80 -67 -64 -53 -208 -209 -253 -277 -47 -69 -134 -205
-144 -225 -6 -11 -16 -46 -24 -78 -7 -32 -16 -60 -21 -63 -33 -20 24 -96 117
-156 22 -14 55 -40 74 -57 19 -17 43 -31 53 -31 11 0 18 -7 18 -20 0 -11 6
-20 14 -20 8 0 16 -7 20 -15 3 -8 13 -15 22 -15 10 0 14 -5 10 -15 -3 -9 0
-15 9 -15 8 0 14 -3 14 -7 -3 -20 3 -23 21 -13 24 13 26 30 5 30 -8 0 -15 6
-15 13 0 7 -13 26 -29 41 -19 18 -27 34 -24 47 6 21 61 62 128 97 64 32 150
120 181 185 19 41 49 77 97 120 38 34 129 121 202 192 146 144 204 223 294
404 32 64 68 133 80 154 23 42 26 68 11 98 -8 15 -21 19 -58 18 -26 0 -60 -5
-77 -11z m-431 -493 c-4 -8 -8 -15 -10 -15 -2 0 -4 7 -4 15 0 8 4 15 10 15 5
0 7 -7 4 -15z m-24 -26 c0 -19 -26 -54 -40 -54 -9 0 -28 -21 -90 -100 -30 -38
-60 -74 -66 -80 -6 -5 -31 -37 -57 -70 -54 -72 -154 -171 -163 -163 -6 6 33
92 58 127 51 72 329 361 348 361 5 0 10 -9 10 -21z"/>
<path d="M4707 11770 c-3 -11 -1 -20 4 -20 5 0 9 9 9 20 0 11 -2 20 -4 20 -2
0 -6 -9 -9 -20z"/>
<path d="M4768 11680 c5 -32 26 -40 36 -14 12 30 6 44 -17 44 -20 0 -23 -4
-19 -30z"/>
<path d="M4712 11630 c0 -14 2 -19 5 -12 2 6 2 18 0 25 -3 6 -5 1 -5 -13z"/>
<path d="M8488 11206 c-21 -8 -42 -10 -50 -5 -21 13 -50 10 -93 -11 -25 -12
-62 -19 -100 -20 -43 0 -70 -6 -95 -21 -41 -25 -74 -58 -66 -66 3 -3 -7 -21
-21 -39 -23 -30 -25 -41 -20 -89 7 -67 11 -75 45 -75 19 0 45 17 87 56 74 68
222 158 312 189 70 25 88 42 78 75 -7 23 -25 24 -77 6z m-85 -21 c-3 -9 -8
-14 -10 -11 -3 3 -2 9 2 15 9 16 15 13 8 -4z"/>
<path d="M9236 11143 c5 -19 44 -50 44 -35 0 5 -11 19 -24 31 -22 21 -24 21
-20 4z"/>
<path d="M9310 11080 c0 -5 7 -10 16 -10 8 0 12 5 9 10 -3 6 -10 10 -16 10 -5
0 -9 -4 -9 -10z"/>
<path d="M5104 10978 c3 -13 6 -27 6 -33 0 -5 4 -4 9 4 10 16 3 51 -11 51 -6
0 -8 -10 -4 -22z"/>
<path d="M9410 10932 c0 -6 -7 -9 -15 -6 -12 5 -15 -2 -15 -31 0 -24 4 -35 12
-33 12 4 31 69 22 77 -2 2 -4 -1 -4 -7z"/>
<path d="M9460 10894 c0 -19 4 -33 8 -30 8 5 4 66 -4 66 -2 0 -4 -16 -4 -36z"/>
<path d="M8660 10891 c-12 -24 -13 -61 -1 -61 8 0 31 52 31 71 0 16 -19 9 -30
-10z"/>
<path d="M8793 10892 c-7 -4 -15 -26 -19 -48 -5 -36 -3 -42 22 -58 27 -18 27
-18 45 5 43 56 6 135 -48 101z"/>
<path d="M9192 10875 c-22 -47 -16 -55 36 -54 40 0 51 5 70 30 23 29 23 29 3
29 -12 0 -21 5 -21 10 0 6 -17 10 -38 10 -32 0 -41 -5 -50 -25z m66 -32 c-10
-2 -28 -2 -40 0 -13 2 -5 4 17 4 22 1 32 -1 23 -4z"/>
<path d="M8973 10883 l-33 -4 0 -87 c1 -75 4 -91 23 -113 28 -34 70 -42 86
-17 29 47 4 231 -32 226 -6 0 -27 -3 -44 -5z"/>
<path d="M9140 10840 c0 -11 5 -20 10 -20 6 0 10 9 10 20 0 11 -4 20 -10 20
-5 0 -10 -9 -10 -20z"/>
<path d="M9926 10838 c-82 -42 -286 -206 -286 -229 0 -5 21 -30 47 -56 73 -75
113 -184 113 -310 0 -28 7 -50 23 -70 13 -15 34 -46 47 -68 26 -42 73 -95 86
-95 4 0 43 23 85 51 57 37 78 57 82 77 3 15 12 56 21 92 20 86 20 223 0 283
-9 26 -19 49 -23 51 -4 3 -25 0 -47 -5 -92 -24 -87 -24 -79 2 4 13 28 47 52
74 40 46 43 53 38 90 -10 65 -14 73 -53 97 -58 36 -65 37 -106 16z"/>
<path d="M5183 10824 c-25 -29 -28 -40 -12 -49 6 -4 13 2 16 14 3 11 9 18 14
15 5 -3 9 6 9 20 0 32 0 32 -27 0z"/>
<path d="M9362 10830 c0 -14 2 -19 5 -12 2 6 2 18 0 25 -3 6 -5 1 -5 -13z"/>
<path d="M9430 10835 c0 -8 5 -15 10 -15 6 0 10 7 10 15 0 8 -4 15 -10 15 -5
0 -10 -7 -10 -15z"/>
<path d="M5370 10812 c0 -6 -8 -13 -17 -15 -16 -4 -16 -5 -1 -6 18 -1 34 16
24 26 -3 4 -6 1 -6 -5z"/>
<path d="M5230 10783 c0 -10 4 -25 10 -33 8 -12 10 -12 16 3 7 20 -1 47 -16
47 -5 0 -10 -8 -10 -17z"/>
<path d="M5250 10684 c0 -8 5 -12 10 -9 6 3 10 10 10 16 0 5 -4 9 -10 9 -5 0
-10 -7 -10 -16z"/>
<path d="M7836 10533 c-11 -11 -6 -23 9 -23 8 0 15 4 15 9 0 13 -16 22 -24 14z"/>
<path d="M7921 10494 c0 -11 3 -14 6 -6 3 7 2 16 -1 19 -3 4 -6 -2 -5 -13z"/>
<path d="M7085 10346 c-131 -67 -148 -77 -141 -83 6 -6 149 58 154 69 2 5 9 8
15 8 6 0 18 7 28 16 29 26 55 4 52 -43 -5 -71 -16 -133 -24 -139 -5 -3 -9 -15
-9 -27 0 -12 -15 -48 -33 -81 -27 -49 -44 -65 -102 -101 -39 -23 -92 -50 -120
-61 -43 -16 -46 -19 -24 -22 32 -4 203 78 233 112 50 57 79 129 92 231 19 144
18 175 -3 174 -10 -1 -63 -25 -118 -53z"/>
<path d="M6871 10238 c-25 -12 -39 -24 -32 -26 6 -2 23 3 36 12 13 9 31 16 40
16 8 0 15 5 15 10 0 14 -9 12 -59 -12z"/>
<path d="M8868 10233 c-7 -11 -34 -38 -61 -62 l-48 -44 -102 -4 c-56 -2 -146
-6 -201 -9 -74 -5 -100 -3 -106 6 -6 10 -15 10 -39 2 -31 -11 -60 -7 -72 11
-4 5 -24 9 -45 10 -22 0 -42 5 -46 11 -5 7 -8 4 -8 -7 0 -14 -5 -17 -20 -12
-27 9 -26 -11 5 -50 60 -80 215 -148 400 -176 178 -27 610 -17 737 17 11 3 25
31 40 77 13 43 35 86 53 105 16 19 30 39 30 45 0 8 -61 11 -217 8 -208 -3
-217 -2 -237 18 -12 12 -21 27 -21 35 0 7 -6 19 -14 25 -11 9 -17 8 -28 -6z"/>
<path d="M5360 10160 c-11 -11 -20 -33 -20 -50 0 -54 33 -30 45 33 8 42 3 45
-25 17z"/>
<path d="M6649 10150 c-13 -7 -15 -21 -11 -62 6 -68 17 -88 48 -88 19 0 28 8
40 35 20 49 18 62 -12 69 -22 6 -25 11 -20 31 5 20 3 25 -11 25 -10 0 -25 -5
-34 -10z"/>
<path d="M6595 10130 c-3 -5 -2 -10 4 -10 5 0 13 5 16 10 3 6 2 10 -4 10 -5 0
-13 -4 -16 -10z"/>
<path d="M6515 10110 c-7 -12 22 -12 50 0 17 7 15 9 -12 9 -17 1 -35 -3 -38
-9z"/>
<path d="M6331 10081 c-28 -18 118 -161 164 -161 3 0 5 5 5 10 0 6 -6 10 -14
10 -17 0 -92 87 -105 124 -11 27 -26 32 -50 17z"/>
<path d="M9896 9959 c-11 -106 -45 -168 -146 -269 -75 -75 -94 -88 -160 -112
-97 -36 -171 -52 -201 -45 -15 4 -29 19 -38 39 -7 18 -22 52 -32 75 -10 24
-19 52 -19 63 0 37 -25 31 -115 -29 -132 -87 -403 -221 -447 -221 -18 0 -109
63 -294 203 -48 37 -96 67 -105 67 -17 0 -165 -75 -190 -97 -9 -7 -22 -11 -30
-8 -15 6 -64 76 -95 135 l-19 35 -3 -34 c-5 -50 44 -136 119 -211 46 -45 159
-121 209 -140 19 -7 40 -17 45 -21 6 -4 28 -10 50 -14 22 -4 45 -11 50 -15 6
-5 19 -10 30 -13 11 -2 4 -2 -15 1 -52 7 -89 6 -147 -7 -51 -11 -86 -5 -103
19 -3 4 -18 13 -35 22 -71 35 -202 111 -232 134 -17 13 -34 24 -37 24 -4 0
-49 29 -101 65 -52 36 -97 65 -101 65 -4 0 -15 6 -23 14 -40 35 -112 66 -153
66 -43 -1 -131 -19 -179 -38 -30 -12 -100 -18 -114 -10 -6 3 -43 6 -84 7 -40
1 -76 3 -80 5 -5 3 -142 -13 -241 -28 -219 -34 -741 -60 -945 -47 -288 19
-319 22 -370 32 -27 6 -63 9 -80 7 -54 -6 99 -47 214 -57 82 -6 107 -12 117
-26 10 -14 17 -15 27 -7 11 9 40 9 120 0 l105 -11 5 -41 c7 -48 2 -170 -8
-215 -5 -24 -3 -31 8 -31 12 0 17 17 22 68 9 85 32 192 46 209 8 9 16 10 30 2
11 -5 48 -10 84 -10 52 -1 67 -4 75 -18 8 -16 7 -105 -2 -196 -2 -21 1 -30 12
-30 10 0 20 24 32 85 10 47 23 97 29 111 9 24 13 26 51 19 22 -4 44 -13 48
-20 4 -7 12 -10 18 -6 6 3 20 -6 31 -21 17 -24 22 -26 31 -13 7 11 10 -2 10
-47 0 -54 3 -63 18 -63 26 0 42 20 43 54 1 17 3 23 6 14 7 -29 50 -34 72 -9
22 25 38 27 62 5 17 -15 22 -15 75 11 31 15 65 36 75 46 11 11 26 19 34 19 8
0 15 3 15 8 0 4 18 18 40 32 22 13 40 28 40 32 0 4 5 8 11 8 7 0 26 17 44 37
27 31 38 37 80 39 26 2 53 8 59 14 5 5 16 10 23 10 18 0 -18 -35 -56 -55 -17
-8 -41 -26 -55 -40 -14 -14 -29 -25 -34 -25 -4 0 -19 -18 -32 -40 -14 -22 -28
-40 -32 -40 -5 0 -8 -5 -8 -12 0 -7 -27 -46 -59 -88 -35 -46 -73 -110 -94
-161 -56 -134 -114 -379 -91 -379 9 0 118 76 155 107 55 47 91 72 139 97 30
16 73 41 95 55 22 15 54 33 70 40 17 7 38 17 47 22 10 5 25 9 34 9 8 0 30 11
47 24 30 23 36 24 87 14 30 -5 60 -13 65 -18 6 -4 33 -15 61 -23 28 -8 60 -20
70 -25 11 -5 53 -20 94 -32 41 -12 98 -30 126 -40 28 -10 86 -26 130 -35 43
-9 113 -25 154 -37 41 -11 111 -29 155 -40 127 -31 156 -40 227 -75 37 -18 72
-33 78 -33 5 0 48 -18 95 -39 46 -22 95 -43 107 -47 13 -3 55 -28 93 -54 39
-26 109 -73 156 -103 48 -30 90 -60 94 -67 4 -6 7 -49 6 -96 -1 -46 6 -117 14
-157 20 -95 19 -170 -5 -361 -30 -243 -37 -219 75 -301 130 -93 354 -322 340
-345 -3 -5 4 -11 14 -15 11 -3 33 -27 49 -53 16 -26 41 -58 54 -72 14 -14 33
-43 42 -64 9 -22 35 -55 57 -74 23 -20 38 -40 35 -48 -6 -15 39 -69 57 -69 6
0 12 -5 14 -12 3 -7 -3 -10 -15 -6 -28 7 -37 -14 -12 -27 28 -15 25 -33 -9
-48 -30 -13 -48 -58 -30 -77 6 -5 9 -3 9 8 0 9 6 17 14 17 8 0 17 6 19 13 4 8
6 8 6 1 1 -7 -15 -35 -34 -63 -19 -28 -35 -54 -35 -59 0 -5 -9 -17 -21 -28
-12 -10 -27 -31 -35 -46 -7 -14 -19 -32 -26 -40 -7 -7 -31 -40 -53 -73 -45
-67 -46 -68 -78 -110 -13 -16 -58 -83 -101 -147 -44 -66 -92 -126 -109 -137
-33 -21 -47 -20 -29 2 6 7 11 24 11 37 -1 44 -21 110 -33 110 -7 0 -37 -20
-67 -45 -30 -25 -67 -55 -82 -68 -15 -12 -34 -28 -42 -34 -7 -7 -20 -13 -27
-13 -8 0 -18 -4 -24 -10 -11 -11 -95 -29 -174 -36 -30 -3 -77 -12 -103 -21
-38 -12 -51 -12 -62 -3 -21 17 -19 47 3 54 11 4 29 18 42 31 23 25 23 25 3 25
-12 0 -23 -5 -25 -12 -5 -15 -80 -20 -89 -6 -10 16 36 158 51 158 3 0 20 -4
38 -9 l32 -10 1 132 c2 201 -1 269 -17 306 -20 47 -47 185 -48 246 -1 36 -7
56 -23 74 -13 13 -23 35 -23 49 0 14 -8 35 -19 46 -10 12 -24 42 -31 68 -7 26
-19 49 -27 52 -10 4 -13 14 -9 29 4 16 -1 31 -16 47 -15 16 -18 25 -10 28 17
5 15 49 -3 56 -8 3 -15 11 -15 19 0 7 -11 24 -25 37 -14 13 -25 33 -25 46 0
12 -7 24 -15 28 -8 3 -15 17 -15 31 0 14 -4 25 -10 25 -5 0 -10 7 -10 16 0 9
-11 29 -25 46 -14 16 -27 42 -30 56 -3 15 -12 40 -20 55 -8 16 -15 37 -15 47
0 10 -5 20 -11 22 -6 2 -12 19 -14 38 -1 21 -12 45 -27 60 -20 21 -26 37 -26
79 -1 43 -6 58 -26 75 -27 23 -56 86 -56 121 0 12 -7 28 -15 35 -8 7 -15 22
-15 34 0 18 -20 89 -52 181 -6 17 -13 44 -16 60 -6 36 -47 104 -67 111 -11 5
-12 11 -5 24 12 23 4 27 -35 22 -16 -2 -54 -3 -82 -2 -29 0 -53 -3 -53 -7 0
-9 -42 -29 -82 -38 -15 -4 -32 -13 -39 -21 -13 -16 -39 -19 -39 -4 0 5 9 14
20 20 11 6 20 14 20 18 0 4 -9 8 -20 8 -11 0 -20 -6 -20 -13 0 -7 -6 -22 -12
-34 -11 -17 -10 -22 12 -39 20 -15 23 -21 13 -31 -16 -16 -17 -49 -2 -49 7 0
9 -10 7 -25 -3 -14 0 -32 7 -41 9 -12 9 -29 2 -62 -8 -38 -6 -51 12 -87 12
-23 21 -49 21 -58 0 -9 5 -19 10 -22 12 -8 13 -60 2 -83 -5 -9 -5 -60 1 -114
8 -85 7 -99 -7 -113 -11 -11 -16 -34 -16 -71 0 -45 3 -54 18 -54 12 -1 3 -13
-28 -40 l-45 -39 44 -1 c42 0 43 -1 28 -18 -10 -11 -20 -45 -23 -80 -6 -51
-10 -62 -25 -62 -17 0 -19 -9 -19 -80 0 -73 -2 -80 -20 -80 -18 0 -20 -7 -20
-79 0 -75 1 -80 23 -84 19 -3 16 -6 -20 -23 l-42 -19 0 -110 c0 -149 -20 -325
-38 -325 -14 0 -16 -24 -7 -94 5 -36 11 -46 25 -46 11 0 19 -4 19 -10 0 -5 -9
-10 -20 -10 -11 0 -20 5 -20 10 0 6 -9 10 -20 10 -16 0 -20 -7 -20 -30 0 -21
5 -30 16 -30 13 0 15 -7 10 -31 -3 -17 -6 -44 -6 -60 0 -16 -4 -29 -10 -29 -5
0 -10 6 -10 13 0 8 -16 12 -45 13 -41 1 -50 -5 -46 -28 2 -16 -37 -24 -91 -20
-32 2 -58 8 -58 13 0 5 -6 9 -14 9 -8 0 -18 9 -21 20 -3 11 -15 20 -25 20 -19
0 -34 25 -25 41 3 4 -1 19 -10 33 -9 13 -15 30 -14 38 5 27 -30 168 -42 168
-5 0 -9 8 -9 18 0 10 -4 22 -9 27 -8 10 -24 68 -36 133 -4 18 -11 29 -17 26
-5 -3 -9 2 -7 12 3 28 -12 75 -22 68 -14 -8 -22 22 -10 44 7 13 6 26 -5 46 -8
16 -14 45 -14 66 0 23 -5 40 -14 43 -8 3 -17 21 -21 39 -7 32 -31 68 -45 68
-16 0 -19 -50 -6 -87 8 -22 16 -72 20 -111 3 -40 10 -80 15 -90 5 -10 12 -103
14 -208 3 -104 8 -204 12 -223 5 -21 2 -51 -9 -85 -31 -98 -47 -179 -37 -186
15 -8 -9 -80 -26 -80 -7 0 -16 -7 -19 -15 -4 -9 -26 -17 -54 -21 -36 -5 -50
-12 -58 -29 -7 -15 -23 -25 -49 -30 -21 -4 -57 -15 -80 -26 -51 -23 -103 -25
-103 -5 0 8 5 18 10 21 6 3 10 13 10 22 0 12 -7 14 -37 9 -21 -4 -52 -7 -70
-6 -38 0 -62 -21 -70 -62 -7 -34 -31 -48 -47 -27 -18 25 -45 30 -72 13 -13 -9
-24 -23 -24 -30 0 -8 -4 -14 -9 -14 -15 0 -35 31 -36 54 0 18 -5 21 -37 19
-21 -1 -38 2 -38 6 0 22 13 41 29 41 9 1 1 7 -18 16 -21 9 -47 12 -68 8 -32
-6 -33 -5 -33 26 0 29 -2 32 -22 26 -57 -16 -78 -18 -78 -7 0 6 5 11 10 11 6
0 10 10 10 22 0 17 -3 19 -12 10 -14 -14 -32 -16 -23 -3 3 6 -1 13 -9 18 -8 4
-41 60 -74 123 -32 63 -68 130 -80 149 -28 46 -84 187 -116 296 -15 50 -38
122 -51 160 -13 39 -39 135 -59 215 -31 127 -47 197 -87 375 -5 22 -13 85 -18
140 -6 55 -15 147 -21 205 -7 58 -12 158 -13 222 -1 64 -6 120 -10 125 -23 21
-444 -470 -650 -758 -132 -184 -152 -208 -167 -193 -8 8 -76 178 -120 299 -10
28 -30 82 -44 121 -26 68 -34 122 -56 339 -6 55 -13 111 -15 125 -5 25 12 406
22 493 4 37 2 46 -8 42 -19 -7 -114 -169 -133 -225 -8 -25 -29 -83 -46 -130
-30 -79 -42 -118 -85 -260 -9 -30 -25 -80 -35 -110 -19 -56 -34 -137 -70 -383
-22 -155 -28 -501 -10 -677 5 -52 14 -141 19 -197 9 -85 20 -128 66 -251 30
-82 58 -165 62 -183 3 -19 11 -37 16 -41 7 -4 6 -21 -3 -50 -8 -24 -15 -47
-16 -53 -5 -33 -31 -74 -48 -79 -45 -12 -76 -7 -76 13 0 11 6 22 13 25 6 3 1
3 -11 0 -21 -5 -23 -3 -17 15 4 12 0 30 -9 43 -9 12 -16 31 -16 41 0 10 -4 16
-9 13 -5 -3 -25 -8 -45 -11 -26 -5 -36 -3 -37 7 0 7 -4 4 -8 -7 -6 -15 -4 -22
10 -27 10 -4 22 -15 28 -26 8 -15 4 -25 -22 -53 -30 -32 -32 -39 -31 -104 0
-65 4 -76 53 -162 29 -51 59 -97 67 -104 8 -6 14 -16 14 -21 0 -14 57 -85 103
-129 20 -20 37 -45 37 -57 0 -12 11 -33 25 -48 14 -15 25 -24 25 -21 0 3 20
-1 45 -10 l45 -15 60 40 c76 51 173 84 237 80 59 -4 66 -22 28 -72 -18 -24
-28 -53 -34 -102 -10 -85 -8 -105 16 -171 l19 -51 33 21 c25 15 55 22 118 25
98 5 112 -2 89 -46 -21 -40 -20 -62 1 -62 9 0 62 -22 117 -49 106 -51 231 -86
275 -77 14 3 43 8 63 10 20 2 56 16 80 30 44 26 122 45 266 67 79 12 91 11
220 -16 145 -30 202 -41 267 -51 274 -42 400 -77 495 -136 12 -8 32 7 100 77
79 81 135 123 147 111 3 -2 -9 -29 -26 -59 -43 -76 -41 -106 14 -189 25 -37
56 -91 69 -121 14 -29 35 -61 48 -69 77 -53 163 -155 297 -356 152 -228 142
-219 189 -175 24 23 50 14 82 -27 30 -37 35 -40 83 -40 29 -1 81 -7 116 -14
l64 -14 30 34 c17 18 46 39 66 45 20 6 54 20 77 31 58 30 74 21 61 -34 -5 -24
-14 -52 -19 -64 -5 -11 -8 -33 -6 -48 2 -24 12 -32 62 -52 33 -13 63 -24 67
-24 4 0 22 25 39 55 42 74 173 186 318 274 133 81 292 141 501 191 167 41 200
62 243 152 17 37 35 68 40 68 20 0 65 -186 78 -321 5 -48 11 -92 14 -97 9 -15
-18 -112 -31 -112 -7 0 -13 -7 -13 -15 0 -8 7 -15 15 -15 32 0 13 -43 -45
-101 -56 -56 -74 -79 -50 -64 6 3 10 -3 10 -15 0 -13 -4 -19 -12 -14 -7 4 -8
3 -4 -4 7 -12 -29 -57 -102 -128 -35 -33 -50 -41 -75 -39 -18 2 -36 0 -42 -3
-5 -3 -21 -7 -35 -9 -14 -2 -41 -5 -60 -8 -88 -11 -123 -26 -87 -38 9 -3 9
-10 -3 -31 -10 -19 -11 -32 -4 -44 13 -22 7 -52 -11 -52 -7 0 -21 -3 -31 -7
-12 -4 -15 -3 -10 5 4 7 16 12 27 12 12 0 19 7 19 20 0 11 -4 20 -10 20 -5 0
-10 -4 -10 -10 0 -5 -11 -10 -24 -10 -13 0 -27 -6 -29 -12 -4 -10 -6 -10 -6 0
-1 8 -6 9 -18 3 -89 -44 -108 -50 -123 -37 -8 8 -24 17 -35 20 -27 9 -85 62
-85 78 0 8 12 22 27 33 15 11 34 27 43 35 27 25 84 66 103 73 24 9 12 27 -18
27 -16 0 -26 -8 -33 -28 -7 -20 -17 -28 -36 -30 -15 -1 -34 -9 -42 -17 -9 -8
-36 -27 -60 -41 l-45 -27 -25 23 c-13 13 -24 28 -24 33 0 6 -7 18 -16 28 -17
19 -14 19 -99 -16 -16 -7 -39 -16 -50 -19 -11 -3 -51 -52 -87 -108 -71 -107
-73 -120 -21 -133 15 -3 39 -15 54 -26 15 -10 31 -19 36 -19 5 0 28 -9 51 -20
22 -11 57 -20 76 -20 37 0 55 4 214 44 l92 23 19 -26 c9 -14 28 -53 41 -86 13
-33 27 -64 30 -70 4 -5 10 -26 13 -45 2 -19 9 -60 15 -90 29 -151 44 -301 33
-332 -20 -56 -17 -58 59 -58 57 0 70 3 70 16 0 8 -16 22 -36 30 -34 14 -36 17
-30 52 4 20 6 58 6 85 -1 57 16 68 59 38 29 -21 30 -21 43 -2 8 11 30 22 50
26 32 6 38 4 54 -19 14 -22 15 -31 5 -52 -10 -23 -9 -26 24 -40 19 -7 38 -14
43 -14 17 0 44 -39 38 -55 -3 -8 -19 -18 -36 -22 -17 -3 -29 -8 -28 -12 45
-87 44 -82 25 -96 -19 -13 -23 -34 -7 -36 6 -1 15 -3 20 -4 6 -1 21 -3 34 -4
12 0 35 -12 50 -26 20 -19 39 -25 74 -26 166 -3 298 -10 367 -19 44 -5 137
-12 207 -16 l128 -6 26 31 c25 30 29 31 107 31 63 0 78 3 69 12 -7 7 -12 23
-12 36 l0 24 35 -27 c41 -31 51 -27 90 35 13 20 45 57 71 83 44 42 47 49 32
58 -27 15 -22 35 18 79 42 46 58 49 84 17 10 -12 22 -19 26 -15 4 5 0 16 -8
25 -11 13 -14 32 -11 66 2 26 2 47 -1 47 -16 0 -196 -169 -196 -184 0 -18 -48
-68 -54 -57 -11 17 15 52 95 131 97 96 132 127 194 172 58 42 101 85 93 93 -3
3 -38 9 -77 12 -50 4 -71 3 -71 -6 0 -6 -6 -11 -14 -11 -23 0 -31 -22 -12 -32
9 -5 16 -18 16 -28 0 -18 -2 -18 -34 3 -18 12 -51 47 -72 77 -21 30 -57 78
-80 106 -61 74 -61 80 -8 159 41 63 45 74 39 110 -3 22 -6 47 -6 55 -1 8 -7
54 -15 102 -17 104 -19 190 -5 238 6 19 11 54 11 77 0 23 4 52 9 65 5 13 11
50 14 83 4 33 11 86 16 119 8 46 7 66 -4 93 -17 41 -20 126 -4 154 12 23 -13
75 -46 93 -44 25 -141 96 -164 120 -29 30 -46 33 -60 9 -7 -11 -14 -14 -18 -8
-5 6 -17 15 -28 21 -11 6 -25 21 -31 33 -19 38 -30 44 -51 30 -12 -7 -18 -20
-16 -33 3 -16 -5 -25 -34 -38 -22 -11 -39 -14 -41 -8 -6 16 -32 12 -32 -5 0
-20 -39 -19 -47 1 -3 8 4 26 18 40 17 18 20 27 12 32 -9 6 -7 16 7 37 21 32
26 50 11 40 -5 -3 -26 4 -46 16 -30 18 -35 26 -30 46 3 13 0 33 -6 46 -13 24
-38 131 -44 187 -16 156 -17 146 10 171 13 13 25 32 25 42 0 9 4 17 9 17 14 0
23 32 11 44 -7 7 -10 6 -10 -2 0 -7 -7 -12 -16 -12 -11 0 -8 9 13 37 22 29 29
33 31 19 3 -16 5 -16 18 3 9 12 13 25 10 30 -6 9 27 43 40 40 21 -4 28 2 14
11 -12 7 -12 12 -2 22 10 10 15 10 22 -2 8 -12 12 -12 18 -2 9 13 42 6 42 -9
0 -5 -7 -12 -15 -15 -8 -4 -15 -15 -15 -25 0 -16 8 -19 45 -19 25 0 45 5 45
10 0 6 -4 10 -10 10 -13 0 -13 37 0 45 6 3 14 -4 19 -17 7 -16 10 -18 10 -6 1
22 15 30 57 32 22 1 34 -3 34 -11 0 -7 7 -13 15 -13 8 0 15 -8 15 -18 0 -9 10
-22 22 -27 12 -6 27 -26 33 -45 7 -19 18 -36 26 -38 8 -1 37 21 65 50 51 52
52 54 63 143 23 168 27 178 89 237 32 29 69 62 83 73 15 12 33 34 42 50 21 40
72 92 108 110 27 14 29 20 29 72 0 52 -3 61 -35 93 -28 29 -37 47 -42 88 -6
52 -6 52 45 106 57 61 72 98 49 124 -20 24 -50 83 -43 89 10 10 26 -9 46 -51
14 -32 29 -48 57 -60 21 -9 50 -25 64 -37 20 -16 58 -25 165 -39 94 -12 173
-30 244 -54 249 -84 271 -89 383 -94 72 -3 112 -1 120 7 6 6 20 11 30 11 36 0
85 39 98 77 14 44 66 92 98 93 14 0 63 -11 110 -26 85 -25 131 -56 131 -90 0
-16 36 -19 45 -4 10 17 36 11 56 -12 18 -23 18 -18 19 290 l0 313 -31 29 c-20
18 -30 34 -26 44 8 19 -12 33 -23 16 -10 -17 -40 3 -69 46 -24 35 -23 63 2 95
17 23 120 77 135 72 9 -4 12 19 12 91 0 53 -2 96 -5 96 -4 0 -19 -7 -34 -15
-28 -14 -50 -12 -103 10 -13 5 -18 2 -18 -9 0 -12 10 -16 36 -16 55 0 32 -16
-27 -19 -29 -1 -60 -6 -70 -11 -20 -11 -66 29 -75 67 -4 16 -13 23 -30 23 -26
0 -74 43 -74 65 0 9 10 15 24 15 13 0 30 2 38 3 7 2 9 2 5 -1 -11 -5 22 -42
38 -42 19 0 55 49 55 75 0 22 -4 25 -40 25 -33 0 -40 3 -40 20 0 21 -24 28
-35 10 -3 -5 -1 -10 5 -10 6 0 8 -4 5 -10 -3 -5 -15 -10 -26 -10 -11 0 -22 -7
-25 -15 -4 -10 -20 -15 -43 -15 -39 0 -56 17 -63 65 -4 22 -26 30 -47 16 -11
-7 -11 -16 4 -55 10 -26 27 -52 39 -58 23 -12 46 -34 46 -42 0 -3 -12 -6 -27
-6 -31 1 -73 31 -73 52 0 19 -20 38 -41 38 -10 0 -25 10 -33 22 l-15 21 -36
-27 c-19 -15 -35 -22 -35 -16 0 6 -12 2 -26 -9 -15 -12 -35 -21 -45 -21 -11 0
-27 -4 -37 -9 -9 -6 -64 -15 -122 -21 -96 -10 -107 -9 -129 8 -36 26 -67 89
-75 147 -7 46 -5 54 23 90 46 62 82 94 110 97 37 4 39 28 2 28 -16 0 -32 4
-36 9 -3 6 -26 13 -50 17 -34 5 -51 2 -71 -11 -18 -12 -36 -15 -60 -11 -37 7
-126 -17 -145 -40 -6 -8 -18 -14 -27 -14 -8 0 -31 -5 -52 -11 -33 -10 -38 -16
-49 -59 -11 -44 -15 -48 -39 -45 -15 2 -40 8 -55 14 -22 8 -35 8 -56 -4 -32
-16 -41 -39 -41 -107 0 -27 -4 -48 -10 -48 -5 0 -10 -7 -10 -15 0 -8 5 -15 12
-15 6 0 2 -10 -10 -23 -12 -13 -22 -28 -22 -33 0 -15 -60 -70 -95 -86 -16 -8
-57 -23 -90 -32 -33 -10 -78 -25 -100 -33 -22 -8 -56 -17 -75 -18 -19 -2 -57
-7 -85 -11 -83 -12 -128 -9 -200 14 -68 22 -76 29 -65 57 11 28 5 35 -32 35
-15 0 -28 3 -28 6 0 3 25 35 55 71 l55 65 -54 61 c-30 34 -92 99 -138 144 -70
69 -97 105 -167 228 -46 81 -113 192 -150 248 -60 91 -141 244 -141 266 0 4
-38 46 -85 92 -46 46 -108 114 -137 151 -29 37 -59 68 -65 68 -7 0 -27 -9 -45
-20 -36 -22 -68 -26 -68 -9 0 23 33 80 57 99 24 18 27 19 53 4 20 -12 26 -22
22 -40 -4 -23 -1 -24 42 -24 54 0 116 23 116 42 0 8 -15 18 -32 23 -32 10 -33
11 -32 65 1 63 40 215 60 235 7 7 42 16 76 20 35 4 95 16 135 26 l71 19 59
-27 c51 -24 70 -27 155 -27 91 0 101 2 170 37 97 48 145 89 158 135 5 20 13
83 17 140 6 104 1 138 -35 224 -14 35 -13 42 5 93 22 59 20 65 -28 83 -16 6
-31 6 -42 1 -20 -12 -57 5 -57 26 0 7 -4 16 -9 19 -5 3 -12 -26 -15 -65z
m-799 -704 c8 -3 11 -15 6 -35 -11 -56 -58 -184 -68 -187 -6 -2 -33 18 -60 43
-28 25 -72 59 -100 75 -74 42 -113 76 -95 82 96 28 143 35 220 30 47 -2 91 -6
97 -8z m-201 -253 c21 -13 25 -49 9 -66 -13 -13 -40 -16 -136 -16 -155 0 -156
19 -4 50 33 6 71 18 85 26 29 16 31 16 46 6z m2014 -1232 c0 -5 -4 -10 -10
-10 -5 0 -10 5 -10 10 0 6 5 10 10 10 6 0 10 -4 10 -10z m-150 -76 c0 -16 -16
-19 -25 -4 -8 13 4 32 16 25 5 -4 9 -13 9 -21z m947 -180 c-3 -3 -12 -4 -19
-1 -8 3 -5 6 6 6 11 1 17 -2 13 -5z m349 -25 c10 -17 -13 -36 -27 -22 -12 12
-4 33 11 33 5 0 12 -5 16 -11z m-56 -9 c0 -11 -48 -25 -56 -17 -4 3 -3 10 1
16 8 14 55 14 55 1z m-151 -26 c-9 -11 -8 -14 4 -14 26 0 67 -22 67 -37 0 -17
-18 -16 -50 2 -14 8 -42 14 -63 15 -22 0 -46 7 -55 16 -15 15 -14 16 6 10 12
-4 22 -3 22 2 0 10 61 31 73 24 4 -2 3 -10 -4 -18z m-473 -23 c19 -18 82 -30
163 -33 67 -1 89 -6 103 -20 15 -15 16 -22 7 -37 -10 -14 -9 -23 4 -41 15 -21
15 -25 -3 -47 -18 -23 -18 -53 1 -53 5 0 9 -7 9 -15 0 -21 -45 -29 -81 -15
-20 9 -47 10 -82 5 -29 -4 -69 -8 -90 -10 -21 -2 -48 -12 -60 -23 -26 -24 -84
-35 -132 -26 -42 8 -87 47 -79 68 3 9 1 16 -5 16 -15 0 -4 25 45 100 46 72 98
126 129 133 34 8 61 7 71 -2z m704 -25 c0 -18 -30 -30 -43 -17 -5 5 -6 14 -3
20 10 16 46 13 46 -3z m200 4 c0 -5 -7 -10 -16 -10 -8 0 -12 5 -9 10 3 6 10
10 16 10 5 0 9 -4 9 -10z m-312 -19 c3 -8 -1 -12 -9 -9 -7 2 -15 10 -17 17 -3
8 1 12 9 9 7 -2 15 -10 17 -17z m52 -61 c0 -5 -2 -10 -4 -10 -3 0 -8 5 -11 10
-3 6 -1 10 4 10 6 0 11 -4 11 -10z m-4993 -152 c-3 -8 -6 -5 -6 6 -1 11 2 17
5 13 3 -3 4 -12 1 -19z m3325 -25 c40 -15 75 -30 76 -35 2 -4 11 -8 19 -8 9 0
13 -6 9 -15 -3 -9 0 -15 9 -15 8 0 15 5 15 12 0 6 2 9 5 6 3 -3 3 -13 -1 -22
-5 -14 -15 -16 -50 -10 -23 3 -49 2 -56 -2 -27 -17 -39 -11 -73 33 -30 39 -46
83 -31 83 3 0 38 -12 78 -27z m686 -75 c2 -16 -2 -28 -8 -28 -6 0 -2 -10 10
-22 31 -34 23 -56 -14 -34 -11 8 -38 17 -59 20 -21 4 -40 13 -43 21 -7 17 -44
27 -45 12 0 -7 -4 -2 -9 11 -5 12 -17 22 -27 22 -12 1 -8 6 12 15 19 9 58 13
105 12 74 -2 75 -2 78 -29z m915 -335 c4 -20 1 -24 -15 -20 -16 5 -17 3 -7 -9
9 -12 9 -20 -1 -40 -11 -20 -20 -24 -52 -22 -21 1 -38 7 -38 13 0 5 -10 15
-22 20 -33 14 -34 49 -4 73 15 11 26 25 26 30 0 38 105 -4 113 -45z m-4906
-365 c-3 -8 -6 -5 -6 6 -1 11 2 17 5 13 3 -3 4 -12 1 -19z m1793 -78 c0 -33
-4 -60 -10 -60 -6 0 -10 27 -10 60 0 33 4 60 10 60 6 0 10 -27 10 -60z m-34
-26 c1 -33 1 -34 -3 -6 -2 18 -9 30 -14 27 -5 -4 -9 1 -9 10 0 36 25 6 26 -31z
m-3676 -41 c22 -28 29 -44 25 -61 -4 -16 -2 -21 5 -17 15 9 50 -23 50 -45 0
-10 7 -23 15 -30 21 -18 19 -28 -7 -32 -22 -3 -22 -4 8 -31 28 -25 30 -31 24
-70 -9 -63 -20 -76 -36 -44 -12 22 -19 25 -48 20 -23 -3 -42 0 -57 11 l-23 16
25 0 c27 0 79 49 79 74 0 8 -15 19 -32 25 -30 11 -34 9 -51 -14 -23 -30 -31
-31 -58 -4 -19 19 -23 20 -59 5 -21 -8 -40 -13 -42 -11 -2 3 -25 5 -51 6 -26
1 -47 5 -47 8 0 8 233 231 242 231 3 0 21 -17 38 -37z m-840 -213 c0 -5 -4
-10 -10 -10 -5 0 -10 5 -10 10 0 6 5 10 10 10 6 0 10 -4 10 -10z m-40 -42 c0
-10 -4 -18 -9 -18 -10 0 -21 47 -13 55 8 7 22 -17 22 -37z m799 8 c10 -12 4
-18 -38 -33 -28 -10 -51 -21 -51 -25 0 -5 -9 -8 -20 -8 -33 0 -23 19 27 50 53
34 65 36 82 16z m-189 -106 c0 -5 -9 -10 -21 -10 -11 0 -17 5 -14 10 3 6 13
10 21 10 8 0 14 -4 14 -10z m3886 -38 c-22 -5 -30 3 -21 18 5 8 11 7 22 -2 15
-12 14 -13 -1 -16z m366 -98 c23 -31 25 -38 13 -50 -7 -8 -18 -14 -24 -14 -6
0 -11 -7 -11 -15 0 -8 6 -15 13 -15 7 0 18 -9 24 -19 8 -13 19 -18 33 -14 11
3 20 1 20 -5 0 -6 9 -14 20 -17 11 -3 20 -11 20 -16 0 -11 -42 -2 -79 17 -39
20 -60 17 -73 -11 -17 -37 0 -49 48 -36 60 17 68 15 50 -11 -9 -12 -16 -32
-16 -44 0 -12 -7 -27 -15 -34 -8 -7 -13 -16 -10 -20 12 -19 -29 -1 -45 19 -15
21 -19 22 -39 10 -20 -12 -24 -12 -37 6 -8 11 -12 25 -10 32 3 8 -2 13 -14 13
-11 0 -20 7 -20 15 0 9 -12 27 -26 40 l-25 24 25 16 c15 10 33 14 46 10 26 -8
90 2 90 15 0 5 -17 14 -38 20 -42 11 -88 52 -77 69 3 6 16 11 28 11 12 1 38 9
57 20 19 11 37 19 40 19 3 0 17 -16 32 -35z m-463 -74 c19 -5 41 -6 50 -1 24
13 61 -5 61 -29 0 -17 -6 -20 -38 -20 -31 0 -38 -4 -39 -20 -1 -11 3 -20 8
-20 6 0 7 -5 3 -12 -5 -7 0 -9 14 -6 22 6 39 -16 22 -27 -14 -8 -13 -48 1 -62
14 -14 3 -33 -20 -33 -9 0 -40 12 -69 26 -60 30 -105 29 -110 -1 -3 -17 -1
-17 7 -5 9 13 11 12 11 -3 0 -10 8 -21 18 -24 9 -4 25 -17 35 -30 17 -21 25
-23 107 -20 49 1 86 -1 84 -5 -3 -5 -20 -8 -37 -8 -43 0 -80 -26 -72 -51 5
-14 2 -19 -12 -19 -11 0 -23 -4 -29 -10 -12 -12 -66 -16 -82 -6 -7 4 -12 13
-12 21 0 20 -34 27 -64 14 -49 -23 -50 1 -6 95 22 48 40 96 40 106 0 35 28 52
77 44 40 -6 45 -5 41 12 -2 13 -13 20 -36 22 -31 3 -33 6 -27 30 4 20 29 52
39 52 1 0 16 -4 35 -10z m665 -161 l35 -41 -33 -47 c-32 -44 -34 -46 -82 -45
-58 2 -78 22 -51 52 9 10 17 25 17 34 0 19 51 87 67 88 6 0 27 -18 47 -41z
m-537 -75 c-3 -3 -12 -4 -19 -1 -8 3 -5 6 6 6 11 1 17 -2 13 -5z m-7 -24 c0
-5 -11 -10 -25 -10 -14 0 -25 5 -25 10 0 6 11 10 25 10 14 0 25 -4 25 -10z
m784 -76 c17 -6 42 -72 31 -82 -4 -4 -12 1 -20 11 -7 9 -19 15 -27 12 -9 -4
-20 4 -28 20 -12 23 -12 28 0 35 18 11 23 12 44 4z m306 -760 c0 -8 -4 -14
-10 -14 -5 0 -10 2 -10 4 0 2 -3 12 -6 20 -5 12 -2 15 10 10 9 -3 16 -12 16
-20z m-1907 -481 c7 -9 5 -13 -7 -13 -9 0 -16 8 -16 18 0 9 -3 28 -5 42 -4 19
-3 18 6 -5 7 -16 16 -36 22 -42z m-23 -23 c8 -5 11 -10 5 -10 -5 0 -17 5 -25
10 -8 5 -10 10 -5 10 6 0 17 -5 25 -10z m2278 -126 c3 -28 3 -28 -12 -9 -19
24 -21 48 -3 43 6 -3 13 -18 15 -34z m-55 -64 c3 -13 0 -20 -9 -20 -8 0 -14 9
-14 20 0 11 4 20 9 20 5 0 11 -9 14 -20z m-1198 -361 c-4 -5 -13 -9 -22 -9
-13 0 -13 3 -3 15 13 15 35 11 25 -6z m-185 -64 c0 -8 -4 -15 -10 -15 -5 0
-10 7 -10 15 0 8 5 15 10 15 6 0 10 -7 10 -15z"/>
<path d="M11903 6703 c-18 -7 -16 -23 2 -23 8 0 15 7 15 15 0 8 -1 15 -2 14
-2 0 -9 -3 -15 -6z"/>
<path d="M5034 6084 c3 -9 6 -18 6 -21 0 -3 7 0 15 7 17 14 11 30 -12 30 -10
0 -13 -6 -9 -16z"/>
<path d="M4935 6080 c-3 -6 1 -7 9 -4 18 7 21 14 7 14 -6 0 -13 -4 -16 -10z"/>
<path d="M9022 5521 c-11 -7 -11 -9 2 -14 10 -4 16 -1 16 8 0 17 -1 17 -18 6z"/>
<path d="M5780 9960 c-71 -9 -89 -17 -101 -47 -12 -33 0 -52 63 -96 66 -45
108 -48 203 -13 76 28 105 50 105 81 0 33 -28 51 -100 64 -99 18 -111 19 -170
11z"/>
<path d="M9219 9860 c-26 -7 -312 -31 -432 -35 -32 -1 -62 -6 -65 -11 -4 -5
-16 -10 -27 -11 -74 -8 -91 -18 -86 -47 1 -5 -7 -6 -18 -3 -11 3 -20 2 -19 -2
2 -19 -3 -31 -12 -26 -6 4 -16 2 -23 -3 -7 -6 -23 -12 -37 -14 -24 -4 -24 -5
20 -48 25 -25 83 -75 128 -113 l82 -68 162 84 c146 75 238 129 335 199 27 20
32 29 31 66 0 23 -3 42 -7 41 -3 0 -18 -4 -32 -9z m-408 -56 c92 -15 134 -120
73 -182 -63 -62 -177 -55 -229 14 -20 27 -18 84 4 113 19 25 75 58 101 60 8 0
31 -2 51 -5z"/>
<path d="M5250 9732 c0 -9 59 -32 84 -32 9 0 14 5 11 10 -3 6 -17 10 -31 10
-14 0 -34 5 -45 10 -10 6 -19 7 -19 2z"/>
<path d="M5375 9690 c3 -5 17 -10 31 -10 13 0 24 5 24 10 0 6 -14 10 -31 10
-17 0 -28 -4 -24 -10z"/>
<path d="M4240 9650 c0 -5 5 -10 11 -10 5 0 7 5 4 10 -3 6 -8 10 -11 10 -2 0
-4 -4 -4 -10z"/>
<path d="M12335 9457 c-27 -23 -54 -48 -59 -56 -10 -16 -19 -24 -136 -131
-110 -100 -140 -130 -140 -141 0 -5 -6 -9 -13 -9 -18 0 -47 -32 -47 -51 0 -8
-11 -23 -25 -33 -14 -10 -25 -23 -25 -29 0 -5 -8 -16 -17 -23 -10 -7 -18 -16
-18 -21 0 -9 -22 -36 -70 -85 -16 -17 -29 -37 -27 -45 2 -8 -8 -25 -21 -37
-13 -12 -27 -34 -31 -49 -3 -15 -11 -27 -16 -27 -6 0 -10 -17 -10 -37 0 -21
-4 -44 -9 -52 -22 -34 120 -89 299 -116 157 -23 173 -17 320 129 l110 109 0
374 c0 205 -3 373 -7 373 -5 -1 -30 -20 -58 -43z"/>
<path d="M5772 9323 c-18 -7 -4 -23 19 -23 12 0 19 5 17 12 -5 14 -18 18 -36
11z"/>
<path d="M11076 9227 c-16 -85 -30 -150 -43 -202 -24 -92 -26 -111 -18 -161 5
-37 11 -47 33 -55 24 -9 30 -7 53 20 23 28 26 41 29 129 5 194 6 282 0 283 -3
0 -15 2 -27 5 -17 3 -24 -2 -27 -19z"/>
<path d="M4186 8875 c-9 -14 -22 -25 -30 -25 -7 0 -19 -11 -26 -25 -7 -14 -17
-25 -21 -25 -5 0 -35 -26 -67 -57 -32 -32 -74 -67 -93 -78 -19 -11 -38 -30
-44 -42 -5 -12 -20 -27 -34 -33 -14 -6 -31 -20 -39 -31 -7 -10 -18 -19 -23
-19 -19 0 -69 -44 -69 -60 0 -17 -39 -60 -54 -60 -5 0 -5 8 -1 17 4 11 -5 7
-24 -11 -19 -18 -31 -40 -31 -55 0 -20 -14 -37 -55 -70 -30 -24 -55 -48 -55
-53 0 -5 -4 -7 -9 -3 -6 3 -13 -1 -18 -8 -13 -21 -103 -77 -132 -83 -35 -7
-103 6 -226 45 -55 18 -131 36 -169 41 -68 8 -70 8 -90 -18 -37 -47 -92 -126
-116 -170 -13 -23 -27 -42 -32 -42 -4 0 -8 -5 -8 -11 0 -6 -13 -28 -28 -48
-36 -46 -88 -131 -160 -261 -13 -25 -32 -58 -42 -75 -96 -164 -119 -227 -129
-345 -7 -81 -6 -106 12 -170 36 -136 37 -150 17 -223 -18 -65 -65 -191 -79
-212 -10 -15 -28 -75 -35 -116 -4 -21 -13 -42 -20 -48 -18 -15 -10 -89 12
-113 18 -21 48 -24 54 -6 3 8 9 4 17 -10 18 -33 35 -27 49 21 15 47 85 188
145 290 37 63 78 107 98 107 5 0 9 -39 9 -87 0 -80 15 -211 25 -222 10 -10 33
22 44 61 16 57 92 250 104 266 5 6 19 12 30 12 11 0 34 4 51 10 171 54 242 84
250 105 3 8 29 26 58 41 96 49 198 153 257 264 14 25 41 65 61 90 20 25 47 72
59 105 34 90 41 104 92 180 25 39 58 93 72 120 14 28 54 90 90 137 54 73 76
116 141 280 43 106 114 265 158 353 92 183 108 228 108 306 0 42 -5 60 -19 73
-17 16 -19 15 -35 -9z"/>
<path d="M2346 8844 c-4 -9 -4 -19 -1 -22 3 -3 5 0 5 6 0 7 5 12 10 12 6 0 10
-8 8 -17 -2 -13 5 -19 24 -21 22 -3 25 -6 15 -17 -9 -9 -14 -10 -20 -1 -5 7
-13 3 -27 -14 -15 -20 -16 -26 -5 -28 8 -2 22 4 31 12 18 18 23 19 44 6 11 -7
9 -11 -11 -19 -25 -9 -43 -34 -33 -44 3 -3 20 -1 37 4 43 12 57 11 57 -4 0
-15 72 -39 80 -26 3 5 14 0 23 -11 18 -21 71 -27 82 -10 3 6 13 10 21 10 8 0
14 -4 14 -10 0 -5 -8 -10 -18 -10 -24 0 -42 -19 -42 -46 0 -21 2 -20 35 12 35
34 68 44 80 24 3 -5 15 -10 26 -10 10 0 19 -4 19 -10 0 -5 8 -10 17 -10 21 0
83 -42 82 -55 -3 -26 2 -45 11 -45 6 0 10 14 10 30 0 43 18 37 22 -7 3 -36 5
-38 41 -39 21 -1 40 3 44 9 4 6 1 7 -6 2 -8 -4 -21 2 -33 15 -30 32 -16 39 79
43 35 1 53 6 53 15 0 6 -6 12 -14 12 -7 0 -16 9 -19 20 -3 13 -14 20 -29 20
-18 0 -20 2 -8 10 11 7 11 10 2 10 -7 0 -11 4 -8 9 3 4 17 6 31 4 13 -3 22 -9
19 -14 -3 -5 2 -9 10 -9 19 0 27 13 17 29 -6 10 -26 11 -82 6 -89 -8 -76 -9
-173 5 -92 13 -149 37 -123 52 31 17 20 38 -20 38 -32 -1 -35 -3 -23 -13 18
-14 24 -37 10 -37 -5 0 -10 7 -10 15 0 9 -9 15 -22 15 -17 0 -19 -3 -10 -9 10
-6 9 -10 -7 -14 -12 -3 -21 -2 -21 3 0 12 -36 19 -51 9 -10 -6 -7 -12 12 -28
31 -26 15 -27 -18 -1 -22 17 -28 18 -45 5 -18 -12 -24 -12 -47 3 -33 21 -40
30 -34 51 2 10 -11 27 -34 45 -21 17 -42 36 -46 43 -11 18 -24 16 -31 -3z
m294 -180 c0 -8 -5 -12 -10 -9 -6 4 -8 11 -5 16 9 14 15 11 15 -7z"/>
<path d="M3155 8660 c3 -5 8 -10 11 -10 2 0 4 5 4 10 0 6 -5 10 -11 10 -5 0
-7 -4 -4 -10z"/>
<path d="M2600 8611 c0 -11 5 -23 10 -26 6 -4 10 5 10 19 0 14 -4 26 -10 26
-5 0 -10 -9 -10 -19z"/>
<path d="M7807 8604 c-9 -10 2 -24 19 -24 8 0 14 7 14 15 0 15 -21 21 -33 9z"/>
<path d="M9582 8590 c-18 -17 -30 -20 -74 -15 -29 4 -58 11 -65 17 -10 8 -11
4 -2 -20 17 -49 33 -57 77 -39 33 13 42 13 77 0 68 -25 85 -27 85 -10 0 9 15
20 34 27 30 10 34 14 27 33 -12 32 -29 32 -43 0 -11 -26 -12 -26 -15 -7 -7 37
-67 45 -101 14z"/>
<path d="M2508 8533 c7 -3 16 -2 19 1 4 3 -2 6 -13 5 -11 0 -14 -3 -6 -6z"/>
<path d="M10365 8518 c-25 -13 -54 -49 -55 -65 0 -21 57 -15 110 12 28 14 50
29 50 34 0 9 -54 31 -74 31 -6 0 -20 -6 -31 -12z"/>
<path d="M2975 8471 c-3 -5 -1 -12 5 -16 5 -3 10 1 10 9 0 18 -6 21 -15 7z"/>
<path d="M10328 8331 c54 -46 99 -46 115 2 6 15 0 17 -46 15 -28 -1 -63 2 -77
6 -23 6 -22 5 8 -23z"/>
<path d="M12332 8127 c-32 -33 -32 -33 -32 -139 l0 -105 38 -7 c20 -3 43 -6
50 -6 9 0 12 36 12 145 0 133 -1 145 -18 145 -10 0 -32 -15 -50 -33z"/>
<path d="M10140 8001 c0 -5 6 -14 14 -20 11 -9 16 -9 21 0 4 6 1 15 -6 20 -18
11 -29 11 -29 0z"/>
<path d="M10670 8000 c0 -7 -22 -9 -61 -7 -53 3 -62 1 -67 -15 -3 -11 -20 -22
-46 -28 -22 -6 -51 -15 -63 -20 -12 -5 -56 -6 -97 -3 -64 4 -76 2 -76 -10 0
-23 84 -37 223 -37 84 0 136 5 167 16 24 8 60 17 80 19 66 7 92 13 104 26 8 8
8 13 -2 16 -7 3 -19 12 -28 21 -9 9 -37 17 -65 18 -28 2 -54 6 -59 9 -6 4 -10
1 -10 -5z"/>
<path d="M9985 7961 c-3 -5 9 -21 27 -35 24 -18 36 -22 45 -14 20 16 16 25
-19 42 -36 18 -45 20 -53 7z"/>
<path d="M12251 7833 c3 -20 -2 -34 -11 -28 -13 8 -25 -44 -12 -57 7 -7 18 -3
35 16 21 23 23 30 13 51 -10 23 -28 35 -25 18z"/>
<path d="M12000 7720 c0 -5 5 -10 10 -10 6 0 10 5 10 10 0 6 -4 10 -10 10 -5
0 -10 -4 -10 -10z"/>
<path d="M11935 7690 c-15 -7 -10 -9 23 -9 23 -1 42 4 42 9 0 12 -37 12 -65 0z"/>
<path d="M12170 7690 c0 -5 5 -10 10 -10 6 0 10 5 10 10 0 6 -4 10 -10 10 -5
0 -10 -4 -10 -10z"/>
<path d="M11808 7683 c7 -3 16 -2 19 1 4 3 -2 6 -13 5 -11 0 -14 -3 -6 -6z"/>
<path d="M12190 7476 c0 -10 9 -16 21 -16 24 0 21 23 -4 28 -10 2 -17 -3 -17
-12z"/>
<path d="M6975 7270 c3 -5 10 -10 16 -10 5 0 9 5 9 10 0 6 -7 10 -16 10 -8 0
-12 -4 -9 -10z"/>
<path d="M10871 6412 c-7 -17 -8 -38 -3 -57 5 -16 7 -35 5 -41 -3 -10 9 -23
72 -72 12 -10 38 -20 218 -82 76 -27 145 -54 153 -61 23 -19 14 -73 -13 -77
-12 -2 -25 -13 -29 -25 -8 -28 -44 -67 -61 -67 -16 0 -17 -12 0 -29 10 -11 10
-14 0 -18 -7 -3 -13 -14 -13 -24 0 -11 4 -18 9 -14 5 3 16 -3 23 -12 21 -28
36 -25 53 11 9 18 27 38 40 44 14 7 25 16 25 21 0 15 235 11 330 -6 131 -23
200 -23 232 -1 14 10 31 18 38 18 6 0 28 13 48 28 105 80 152 112 203 137 46
22 61 35 79 73 28 57 35 62 83 62 l37 0 0 59 0 58 -55 0 c-40 0 -60 -5 -76
-20 -19 -17 -31 -19 -103 -15 -84 6 -166 25 -166 40 0 18 -40 7 -65 -18 -20
-20 -29 -24 -38 -15 -12 12 -57 15 -57 3 0 -4 9 -13 20 -20 28 -17 26 -52 -2
-53 -22 0 -22 -1 -3 -8 22 -9 33 -49 27 -94 -6 -39 -34 -43 -191 -22 -75 10
-147 19 -161 20 -54 3 -88 17 -101 41 -8 16 -9 28 -3 32 13 10 12 76 -3 93 -6
8 -11 19 -11 24 0 11 -100 45 -192 67 -53 12 -153 14 -253 4 -26 -3 -46 -2
-43 2 2 4 -6 15 -19 24 -22 17 -23 17 -34 -10z"/>
<path d="M276 6242 c-11 -11 -186 -36 -248 -35 l-28 0 0 -73 0 -74 46 0 c39 0
55 7 95 37 27 20 49 41 49 45 0 4 36 25 80 45 44 20 80 42 80 48 0 11 -64 18
-74 7z"/>
<path d="M3097 6128 c-37 -37 -76 -68 -85 -68 -10 0 -33 -13 -52 -28 -67 -54
-206 -101 -359 -122 -92 -12 -158 -7 -236 20 -27 9 -57 19 -65 21 -8 2 -56 32
-107 67 -51 34 -97 62 -103 62 -19 0 -9 -15 31 -45 84 -64 124 -98 138 -119 8
-11 34 -42 60 -68 52 -55 116 -78 262 -97 127 -16 143 -14 227 29 64 32 103
64 225 184 104 103 147 152 147 168 0 13 3 33 6 46 11 38 -17 23 -89 -50z"/>
<path d="M3890 6090 c0 -5 7 -10 16 -10 8 0 12 5 9 10 -3 6 -10 10 -16 10 -5
0 -9 -4 -9 -10z"/>
<path d="M6670 6070 c0 -5 11 -10 25 -10 14 0 25 5 25 10 0 6 -11 10 -25 10
-14 0 -25 -4 -25 -10z"/>
<path d="M11174 5935 c-16 -12 -17 -14 -3 -15 9 0 19 7 23 15 7 19 5 19 -20 0z"/>
<path d="M1440 5896 c0 -4 7 -14 15 -22 8 -9 15 -11 15 -6 0 5 -7 15 -15 22
-8 7 -15 9 -15 6z"/>
<path d="M10960 5845 c0 -11 7 -15 23 -13 12 2 22 8 22 13 0 6 -10 11 -22 13
-16 2 -23 -2 -23 -13z"/>
<path d="M1605 5792 c-3 -3 5 -12 17 -19 19 -10 20 -12 5 -13 -16 0 -16 -2 -2
-30 8 -16 15 -39 15 -52 0 -13 9 -37 19 -54 14 -23 16 -35 9 -42 -8 -8 -7 -16
2 -27 12 -14 11 -18 -1 -26 -21 -13 -37 -11 -58 9 -39 35 -51 42 -68 42 -12 0
-6 -11 25 -41 49 -49 67 -96 58 -151 -13 -80 -59 -113 -146 -104 -32 3 -47 2
-36 -2 18 -8 18 -9 2 -15 -10 -4 -28 -7 -41 -7 -13 0 -75 -13 -137 -29 -62
-16 -150 -34 -196 -41 -45 -7 -85 -16 -88 -21 -3 -5 -16 -9 -29 -9 -13 0 -27
-4 -30 -10 -3 -5 -19 -10 -35 -10 -15 0 -30 -5 -32 -11 -2 -6 -20 -12 -40 -14
-20 -2 -45 -8 -56 -14 -10 -6 -34 -8 -53 -5 -26 4 -39 0 -57 -16 -31 -30 -42
-16 -12 15 13 14 19 25 13 25 -14 0 -39 -31 -48 -59 -6 -18 -9 -20 -16 -10 -7
11 -9 9 -9 -7 0 -38 33 -57 85 -50 75 12 206 -18 313 -71 l92 -45 65 17 c87
24 270 16 364 -16 l64 -22 31 35 c17 19 45 52 63 74 18 21 42 51 55 65 36 41
166 109 246 130 40 10 77 21 83 24 5 4 7 22 3 41 -3 19 -7 63 -8 97 l-1 62
-70 67 c-79 75 -129 163 -140 243 -3 28 -10 56 -14 63 -3 6 -36 14 -71 16 -36
3 -79 10 -97 15 -17 5 -34 6 -38 3z m72 -317 c0 -45 -10 -60 -20 -27 -2 9 -8
25 -12 35 -5 12 -2 17 9 17 9 0 16 5 16 10 0 6 2 10 3 10 2 0 4 -20 4 -45z"/>
<path d="M12094 5765 c-15 -20 -35 -35 -47 -35 -19 0 -87 -63 -87 -80 0 -3 15
-13 33 -23 23 -12 75 -20 187 -27 85 -6 170 -13 188 -16 l32 -6 0 98 0 99 -68
4 c-37 3 -91 5 -120 5 -28 1 -52 4 -52 9 0 20 -42 3 -66 -28z"/>
<path d="M11422 5622 c-10 -7 -10 -15 -2 -37 12 -31 5 -65 -13 -65 -7 0 -5 -5
5 -10 9 -6 14 -18 11 -28 -6 -26 54 -69 189 -133 29 -14 137 -49 151 -49 8 0
22 9 32 20 24 26 65 27 65 1 0 -11 -6 -22 -12 -24 -9 -4 -10 -8 -2 -14 6 -4
14 -20 17 -34 4 -14 16 -36 27 -49 20 -23 19 -60 -3 -88 -15 -19 -2 -113 17
-127 21 -16 20 -22 -1 -28 -17 -4 -17 -5 0 -6 21 -1 22 -17 1 -25 -19 -7 -10
-25 14 -25 9 0 50 -2 90 -4 39 -1 72 1 72 6 0 4 24 7 53 6 51 -1 92 9 150 37
16 8 49 14 73 14 31 0 44 4 44 14 0 8 -8 13 -17 12 -13 -1 -19 8 -21 31 -2 20
-11 37 -23 43 -11 6 -19 21 -19 35 0 16 -6 25 -15 25 -8 0 -15 4 -15 9 0 13
-34 23 -89 26 -57 4 -158 20 -191 30 -49 15 -90 58 -90 92 0 17 6 34 13 37 10
5 10 7 0 12 -7 3 -13 11 -13 18 0 6 -13 20 -30 29 -16 10 -31 24 -31 30 -4 32
-7 53 -10 62 -2 6 2 19 8 31 10 18 8 23 -17 37 -29 18 -189 64 -245 71 -16 2
-43 9 -58 15 -33 13 -96 14 -115 3z"/>
<path d="M1622 5591 c4 -13 18 -16 19 -4 0 4 -5 9 -11 12 -7 2 -11 -2 -8 -8z"/>
<path d="M2623 5077 c-4 -6 -19 -18 -33 -25 -40 -20 -72 -78 -65 -115 20 -107
42 -161 88 -218 26 -32 53 -59 58 -59 6 0 34 -15 62 -33 29 -19 70 -45 92 -58
42 -25 75 -54 75 -66 0 -5 14 -26 30 -47 17 -22 30 -50 30 -62 0 -13 5 -26 10
-29 6 -3 10 -15 10 -25 0 -10 4 -20 8 -22 4 -1 20 -38 36 -80 15 -42 34 -82
42 -89 8 -6 28 -41 46 -78 17 -36 34 -68 38 -71 3 -3 12 -20 19 -38 8 -18 27
-51 42 -72 16 -22 29 -44 29 -48 0 -16 41 -92 50 -92 5 0 11 -8 14 -18 15 -47
73 -84 186 -120 8 -2 -16 26 -55 64 -38 38 -78 80 -88 94 -31 43 -75 143 -88
201 -8 35 -17 55 -25 52 -27 -10 -33 154 -8 237 17 57 54 136 87 183 11 16 17
38 15 52 -5 24 14 41 33 29 22 -13 18 26 -5 49 -14 15 -26 35 -26 47 0 11 -4
20 -9 20 -5 0 -17 3 -26 6 -10 4 -15 2 -13 -6 2 -6 -4 -15 -12 -19 -8 -5 -25
-13 -37 -19 -43 -22 -68 -12 -40 17 10 11 10 14 0 18 -15 6 -17 39 -3 48 6 3
10 12 10 18 0 7 -20 -9 -45 -35 -24 -27 -51 -48 -59 -48 -18 0 -29 31 -20 54
4 9 0 24 -9 34 -8 9 -22 33 -31 52 -9 19 -46 66 -82 105 -49 52 -67 66 -73 56
-12 -18 -41 -6 -48 19 -3 11 -12 20 -19 20 -8 0 -14 6 -14 13 0 7 -9 13 -20
14 -11 1 -44 25 -72 52 -54 52 -71 60 -85 38z m621 -502 c3 -9 0 -15 -9 -15
-8 0 -15 7 -15 15 0 8 4 15 9 15 5 0 11 -7 15 -15z m-74 -1 c0 -10 -27 -33
-33 -28 -9 10 4 34 19 34 8 0 14 -3 14 -6z"/>
<path d="M2704 5075 c36 -19 57 -19 32 0 -11 8 -29 15 -40 15 -18 0 -16 -3 8
-15z"/>
<path d="M4840 5053 c0 -13 -119 -143 -131 -143 -5 0 -11 11 -15 25 -6 26 -15
31 -28 18 -4 -5 -26 -12 -49 -18 l-42 -10 0 -83 c0 -46 5 -87 10 -91 6 -4 44
-18 85 -31 41 -12 99 -33 129 -46 29 -13 55 -24 57 -24 10 0 2 35 -16 72 -25
52 -28 207 -5 282 8 27 13 52 10 54 -3 3 -5 1 -5 -5z"/>
<path d="M2830 4973 c0 -13 22 -33 37 -33 7 0 13 7 13 15 0 8 -4 15 -9 15 -5
0 -16 3 -25 6 -9 3 -16 2 -16 -3z"/>
<path d="M11810 4930 c-8 -5 -11 -12 -8 -16 10 -9 58 4 58 16 0 13 -30 13 -50
0z"/>
<path d="M11710 4884 c-47 -22 -64 -24 -113 -19 -48 6 -62 4 -78 -11 -10 -9
-19 -23 -19 -29 0 -17 -23 -25 -75 -25 -24 0 -47 -5 -51 -11 -4 -7 -23 -9 -49
-6 -32 5 -46 2 -56 -9 -8 -10 -9 -18 -3 -22 6 -4 20 -21 32 -38 12 -18 34 -35
49 -39 32 -8 55 -24 48 -35 -2 -4 46 -10 108 -13 102 -5 116 -3 151 16 48 26
55 43 24 52 -13 4 -26 12 -29 18 -8 11 60 87 79 87 7 0 15 14 19 30 3 17 15
37 25 45 11 7 17 18 13 24 -8 14 -11 14 -75 -15z"/>
<path d="M9910 4874 c0 -17 17 -36 24 -26 3 5 -1 15 -9 22 -8 7 -15 9 -15 4z"/>
<path d="M3846 4816 c7 -19 48 -22 42 -3 -3 6 -14 13 -26 15 -16 3 -20 -1 -16
-12z"/>
<path d="M9903 4797 c2 -6 11 -15 20 -21 13 -8 20 -7 27 4 11 18 7 22 -25 26
-16 1 -25 -2 -22 -9z"/>
<path d="M3554 4751 c-10 -17 -22 -31 -26 -31 -4 0 -8 -15 -8 -34 0 -22 -6
-36 -16 -40 -9 -4 -14 -9 -11 -12 3 -3 18 1 34 9 22 12 28 22 28 48 0 18 6 34
13 36 7 3 12 -4 12 -16 0 -27 12 -33 44 -18 30 14 34 35 9 44 -10 3 -28 15
-39 25 -22 19 -22 19 -40 -11z"/>
<path d="M3692 4757 c3 -25 31 -30 36 -6 2 10 -6 19 -18 22 -17 4 -21 1 -18
-16z"/>
<path d="M11144 4470 c-6 -6 -64 -17 -130 -26 -142 -19 -158 -20 -206 -10 -35
8 -38 6 -48 -20 -6 -16 -21 -37 -33 -46 -22 -17 -21 -17 23 -13 25 2 46 8 48
13 5 16 71 -4 124 -37 27 -17 55 -31 62 -31 8 0 44 -11 80 -25 37 -14 75 -25
86 -25 13 0 18 -5 14 -15 -4 -8 1 -27 10 -40 15 -23 18 -24 32 -10 21 20 42
19 89 -5 l39 -20 -34 0 c-38 -1 -72 -21 -68 -40 5 -19 -70 -41 -144 -43 -60
-2 -69 1 -83 21 -9 12 -27 22 -40 22 -16 0 -28 9 -37 27 -8 17 -25 30 -43 34
-90 22 -111 29 -137 49 -45 33 -114 42 -170 23 -27 -9 -48 -23 -48 -30 0 -21
70 -92 119 -121 25 -14 60 -36 76 -47 17 -12 38 -25 48 -28 10 -4 15 -11 12
-17 -3 -5 -1 -10 4 -10 6 0 11 -8 11 -19 0 -10 7 -25 16 -32 14 -11 15 -27 10
-95 -5 -54 -3 -85 4 -89 18 -11 11 -64 -11 -86 -18 -18 -20 -25 -11 -40 9 -13
9 -20 1 -25 -8 -5 -6 -10 5 -16 21 -12 21 -28 0 -28 -13 0 -14 -3 -5 -14 21
-25 -12 -36 -122 -39 -58 -1 -109 -6 -112 -9 -13 -12 -16 -129 -5 -169 8 -31
9 -44 1 -49 -14 -8 13 -34 51 -49 14 -5 71 -15 127 -21 91 -10 104 -9 148 9
81 32 148 50 170 45 13 -4 22 0 26 10 4 9 13 16 20 16 18 0 125 121 167 189
l33 53 -18 32 c-10 17 -23 38 -28 47 -11 18 11 109 26 109 4 0 33 -11 63 -25
30 -14 59 -25 65 -25 6 0 41 28 79 63 67 62 177 124 287 163 50 18 54 18 130
-1 43 -10 80 -19 83 -20 36 -8 99 -32 115 -42 26 -17 35 -16 35 3 0 12 8 14
35 10 27 -5 39 -1 54 15 11 12 31 22 45 23 17 1 27 8 31 24 5 22 25 31 25 12
0 -5 13 -10 29 -10 l30 0 1 215 c0 118 -2 215 -5 215 -3 0 -18 -9 -33 -20 -33
-25 -105 -44 -225 -60 -85 -12 -101 -20 -102 -50 0 -11 -13 -15 -53 -16 -30 0
-57 -5 -60 -11 -22 -36 -250 -43 -336 -11 -58 21 -98 23 -125 6 -20 -12 -51
-5 -51 12 0 5 12 10 27 10 25 0 26 1 11 16 -9 9 -28 17 -42 17 -36 0 -33 25 4
38 34 12 39 37 15 83 -8 15 -15 35 -15 42 0 8 -11 20 -25 26 -18 8 -24 17 -19
30 6 21 -24 26 -43 7 -10 -10 -58 -22 -127 -31 -12 -2 -24 6 -31 19 -8 15 -15
19 -21 13z"/>
<path d="M1023 4428 c-26 -13 -29 -30 -9 -47 11 -9 26 -6 70 16 31 15 56 31
56 35 0 12 -91 8 -117 -4z"/>
<path d="M6567 4403 c-12 -11 -8 -40 7 -52 16 -13 56 1 56 19 0 24 -47 50 -63
33z"/>
<path d="M10800 4350 c0 -5 5 -10 10 -10 6 0 10 5 10 10 0 6 -4 10 -10 10 -5
0 -10 -4 -10 -10z"/>
<path d="M2753 4246 c3 -8 0 -17 -7 -19 -7 -3 -27 -35 -44 -71 -32 -68 -50
-81 -59 -46 -7 26 -23 14 -58 -46 -14 -24 -30 -44 -34 -44 -5 0 -19 -21 -32
-46 -18 -35 -36 -51 -71 -69 -31 -15 -50 -19 -56 -13 -16 16 -33 -1 -26 -28 5
-20 2 -24 -14 -24 -12 0 -24 5 -27 10 -14 22 -27 9 -21 -20 4 -23 2 -30 -9
-30 -9 0 -23 -4 -33 -10 -9 -5 -45 -19 -79 -31 -37 -13 -63 -28 -63 -36 0 -7
-7 -16 -15 -19 -16 -7 -54 32 -55 55 0 16 -29 40 -47 41 -7 0 -13 -9 -13 -20
0 -11 -4 -20 -10 -20 -20 0 -9 -27 15 -38 19 -9 25 -19 25 -45 0 -32 -4 -36
-67 -65 -68 -31 -182 -64 -260 -76 -41 -6 -41 -6 -78 49 -58 88 -119 116 -77
36 l21 -39 -47 -7 c-26 -4 -55 -11 -64 -16 -11 -6 -19 -5 -23 2 -4 5 -19 7
-34 4 -42 -9 -56 14 -42 69 13 54 14 76 2 76 -17 0 -49 -68 -56 -119 -6 -46
-10 -52 -28 -49 -15 2 -23 12 -27 33 -4 24 -7 26 -12 13 -4 -10 -14 -18 -23
-18 -8 0 -16 8 -17 18 -1 9 -2 26 -3 37 -1 11 -3 26 -4 33 0 7 -5 10 -11 7 -5
-3 -10 -34 -10 -68 l0 -63 65 -64 c36 -35 65 -68 65 -72 0 -4 -19 -1 -41 7
-47 17 -85 19 -93 6 -6 -9 -64 0 -85 13 -6 4 -11 3 -11 -2 0 -5 -20 -7 -44 -5
-69 8 -93 -2 -101 -39 -4 -18 -12 -38 -17 -45 -8 -10 -5 -70 4 -78 12 -10 70
-35 83 -35 8 0 15 9 15 20 0 27 44 38 65 16 9 -9 21 -16 26 -16 6 0 5 -9 -1
-21 -7 -11 -10 -22 -8 -23 2 -1 19 -15 39 -29 20 -15 51 -32 70 -38 19 -6 50
-24 70 -39 19 -15 64 -43 100 -61 35 -19 65 -37 67 -40 1 -3 24 -29 51 -59 30
-33 57 -53 72 -54 20 -1 24 -6 21 -28 -3 -28 23 -46 32 -22 3 8 22 22 41 30
19 8 35 19 35 25 0 5 4 8 9 5 5 -4 12 0 14 6 4 10 8 10 15 -1 9 -12 13 -11 28
4 29 29 29 -1 0 -32 -14 -15 -26 -34 -26 -41 0 -18 -40 -51 -62 -52 -9 0 -19
6 -22 13 -4 6 -4 1 0 -13 3 -14 7 -34 9 -45 2 -11 6 -28 10 -37 5 -13 2 -18
-12 -18 -10 0 -24 5 -29 10 -7 7 -24 3 -53 -11 l-43 -20 39 -29 c24 -18 42
-25 48 -19 19 19 45 10 45 -17 0 -21 4 -25 20 -21 11 3 23 0 26 -5 4 -6 11 -4
16 7 7 12 5 22 -10 38 -11 12 -23 36 -27 52 -4 17 -3 26 2 20 11 -13 44 -34
66 -41 21 -8 22 -30 1 -38 -14 -5 -14 -9 -3 -23 8 -9 13 -19 12 -22 -4 -16 6
-9 21 13 12 18 24 25 45 23 19 -1 27 -6 23 -16 -3 -7 2 -18 11 -23 10 -5 17
-16 17 -23 0 -17 9 -19 29 -6 20 13 52 -5 45 -24 -8 -20 64 -87 90 -83 12 1
27 -2 35 -6 11 -7 13 -3 8 19 -3 16 -3 35 0 42 7 18 33 16 33 -2 0 -8 5 -15
10 -15 6 0 10 -4 10 -10 0 -5 -6 -7 -14 -4 -19 7 -25 -6 -15 -33 10 -27 34
-30 47 -6 9 14 10 14 16 -5 4 -12 3 -30 -3 -40 -6 -11 -7 -22 -4 -26 22 -22
61 13 98 88 17 35 25 41 53 43 22 1 32 -3 32 -13 0 -8 -4 -14 -10 -14 -5 0
-10 -13 -10 -29 0 -17 5 -33 10 -36 6 -3 10 -15 10 -26 0 -14 7 -19 25 -19 15
0 25 -6 25 -14 0 -8 5 -18 12 -22 7 -5 9 -2 6 7 -3 8 -9 21 -13 31 -4 11 0 18
15 23 16 5 19 10 11 18 -7 7 -15 6 -26 -3 -10 -8 -15 -9 -15 -2 0 17 38 34 60
27 10 -3 21 -1 25 4 4 7 12 7 25 -1 15 -10 27 -10 55 0 44 17 55 10 55 -34 0
-19 5 -34 10 -34 6 0 10 10 10 23 0 13 5 28 11 34 8 8 6 20 -7 43 -19 31 -19
32 0 46 26 18 56 18 56 -1 0 -9 9 -15 21 -15 17 0 20 -5 17 -25 -4 -17 -1 -25
9 -25 8 0 11 4 8 10 -3 6 1 10 9 10 8 0 18 -4 21 -10 3 -6 0 -10 -8 -10 -29 0
-40 -26 -26 -65 16 -45 44 -47 53 -4 3 17 9 28 14 26 4 -3 26 8 50 24 49 33
55 34 72 14 15 -19 50 -20 50 -2 0 16 41 57 57 57 6 0 14 6 16 13 4 9 8 9 14
1 4 -7 17 -13 28 -15 31 -6 25 -41 -7 -50 -15 -4 -35 -14 -44 -23 -8 -9 -21
-16 -29 -16 -11 0 -11 -6 -2 -31 10 -26 9 -32 -5 -43 -14 -11 -16 -19 -8 -47
16 -54 13 -60 -17 -53 -45 11 -48 10 -45 -12 1 -11 -6 -29 -18 -39 -14 -13
-17 -22 -10 -30 6 -7 9 -19 8 -26 -2 -8 5 -14 17 -14 11 0 19 6 17 13 -3 16
13 15 54 -4 30 -14 35 -14 49 -1 10 11 13 25 8 48 -5 25 -3 31 8 27 8 -2 15
-16 17 -31 2 -18 8 -24 18 -20 11 4 13 14 8 36 -4 20 -3 27 5 23 6 -4 12 -35
12 -69 1 -34 4 -50 6 -34 3 16 11 27 20 27 9 0 13 6 9 15 -7 20 13 65 30 65 7
0 15 -8 17 -17 3 -10 5 -1 6 20 1 31 -2 37 -19 37 -32 0 -60 34 -54 67 3 15 9
30 15 31 5 2 9 12 9 22 0 10 9 20 20 23 15 4 20 0 20 -13 0 -11 5 -22 10 -25
6 -3 10 -19 10 -36 0 -28 8 -34 39 -30 8 2 10 -2 6 -9 -4 -7 -2 -16 5 -20 9
-6 7 -13 -9 -29 -29 -29 -26 -60 10 -129 29 -56 30 -65 37 -228 10 -251 0
-1110 -14 -1124 -8 -8 -16 -4 -28 14 -12 19 -25 26 -47 26 -26 0 -30 3 -25 23
3 12 3 16 0 9 -5 -10 -9 -10 -20 -1 -18 15 -17 -1 1 -25 8 -11 15 -25 15 -30
0 -6 -13 10 -29 35 -16 25 -44 58 -63 72 -32 26 -33 28 -33 105 l0 79 40 -18
c55 -26 97 -24 123 4 12 13 22 32 22 43 0 22 -26 64 -48 78 -8 5 -32 24 -52
42 l-37 34 18 38 c16 32 17 44 8 70 -6 18 -16 32 -23 32 -6 0 -29 20 -49 45
-21 25 -34 45 -29 45 12 0 52 -44 52 -58 0 -13 16 -16 23 -4 2 4 2 1 1 -6 -2
-6 5 -12 16 -12 15 0 20 -7 21 -27 1 -27 1 -27 13 6 11 31 13 32 26 15 14 -16
16 -11 21 52 14 159 29 228 59 277 17 27 30 52 30 56 0 16 -44 22 -184 28
-116 5 -138 4 -134 -8 2 -8 19 -15 36 -17 18 -2 32 -7 32 -11 0 -12 -31 -43
-66 -68 l-31 -22 -26 27 c-13 15 -30 45 -37 67 -7 22 -21 56 -31 76 -31 62
-78 216 -85 281 -6 52 -13 68 -39 95 l-31 31 -303 1 c-331 2 -342 0 -355 -55
-8 -29 26 -88 63 -111 17 -11 18 -17 10 -45 -32 -103 -40 -148 -36 -186 4 -40
2 -47 -29 -75 -26 -24 -44 -57 -70 -132 -67 -186 -76 -210 -89 -240 -37 -87
-55 -140 -55 -165 0 -15 -9 -35 -20 -45 -11 -10 -21 -28 -21 -39 -1 -18 -2
-18 -6 -3 -3 10 3 29 11 42 15 22 15 25 1 25 -8 0 -15 5 -15 10 0 6 4 10 9 10
5 0 2 28 -7 63 -18 74 -69 132 -106 121 -11 -3 15 21 60 54 122 90 193 185
240 322 15 44 19 83 19 200 -1 141 -1 147 -32 212 -21 46 -42 74 -63 87 -18
11 -40 37 -50 59 -10 21 -28 49 -41 61 -42 40 -174 99 -280 126 -91 24 -133
28 -339 34 -263 9 -282 13 -351 82 -72 72 -75 189 -8 321 16 32 29 68 29 82 0
39 -32 63 -77 57 -17 -2 10 87 53 172 19 37 34 78 34 90 0 40 -38 64 -93 59
-35 -4 -171 -242 -217 -382 -38 -116 -55 -253 -42 -328 6 -37 10 -68 8 -69 -1
-1 -32 13 -69 33 -51 27 -67 40 -67 57 0 12 13 71 29 130 33 122 30 156 -12
171 -42 15 -77 -3 -101 -51 -12 -23 -29 -50 -38 -60 -9 -10 -24 -37 -33 -60
l-17 -42 -39 32 c-21 17 -39 35 -39 38 0 4 -16 31 -36 60 -29 44 -33 55 -20
57 21 5 10 22 -14 22 -14 0 -28 18 -50 62 l-30 63 0 -61 c0 -57 4 -66 60 -154
33 -51 60 -97 60 -102 0 -4 5 -8 11 -8 6 0 34 -20 62 -45 29 -25 55 -45 58
-45 4 0 12 21 19 48 22 76 128 237 146 220 4 -5 2 -20 -5 -34 -27 -61 -59
-210 -54 -255 l5 -46 124 -64 c68 -34 126 -60 129 -58 2 3 -5 30 -16 60 -31
79 -30 256 1 354 39 125 71 198 128 295 89 153 140 192 81 64 -17 -38 -44
-107 -59 -154 -27 -85 -48 -194 -33 -175 18 23 75 65 89 65 21 0 17 -24 -12
-80 -34 -64 -54 -142 -54 -209 0 -42 7 -65 30 -107 37 -63 112 -129 160 -138
19 -4 130 -11 245 -16 300 -12 420 -36 548 -112 69 -40 87 -57 87 -82 0 -37
24 -71 54 -76 74 -13 120 -242 82 -403 -52 -217 -217 -370 -470 -434 -47 -13
-62 -13 -81 -3 -20 11 -26 10 -40 -4 -12 -12 -36 -16 -96 -16 l-80 0 4 -322
c3 -178 8 -340 12 -361 4 -21 20 -51 37 -67 16 -16 27 -34 24 -39 -9 -14 -736
-14 -753 1 -10 8 -17 8 -25 0 -7 -7 -42 -12 -80 -12 -54 0 -68 3 -68 15 0 8 7
15 16 15 25 0 142 119 178 180 36 60 92 199 98 240 2 15 14 30 31 38 15 7 27
20 27 29 0 9 11 31 25 49 23 30 25 64 5 64 -4 0 -15 15 -23 33 -13 27 -14 55
-6 192 12 189 2 537 -17 649 -15 88 -10 106 37 135 28 17 29 20 14 35 -9 9
-22 16 -29 16 -6 0 -27 13 -46 30 -19 16 -40 29 -46 30 -12 0 -64 63 -64 77 0
13 -86 83 -123 101 -41 20 -170 97 -224 134 -24 16 -74 61 -113 99 l-70 71 0
-36 c0 -27 8 -46 33 -72 48 -54 176 -147 274 -200 100 -54 183 -113 183 -129
0 -17 70 -95 84 -95 7 0 23 -11 36 -25 18 -20 21 -27 11 -39 -16 -19 -17 -61
-3 -171 19 -155 24 -383 11 -581 -11 -184 -11 -193 9 -237 17 -39 19 -51 9
-77 -6 -16 -19 -32 -28 -35 -19 -6 -18 -5 -61 -125 -56 -157 -109 -240 -155
-240 -38 0 -60 16 -67 50 -3 17 -9 29 -13 27 -5 -3 -9 7 -10 21 -5 60 -21 149
-31 175 -7 16 -12 75 -12 133 0 88 -2 104 -16 104 -24 0 -155 79 -193 116 -19
19 -38 34 -42 34 -4 0 -10 10 -12 23 -2 12 -5 -81 -5 -208 0 -126 2 -224 5
-217 3 8 16 -1 34 -25 16 -21 39 -48 50 -60 31 -34 21 -56 -31 -69 -33 -8 -47
-8 -52 0 -4 6 -8 -177 -8 -406 l0 -418 528 0 528 0 68 56 c37 31 80 59 95 64
15 4 306 5 646 2 341 -3 612 -8 603 -10 -10 -2 -18 -10 -18 -18 0 -8 -10 -14
-25 -14 -14 0 -25 -5 -25 -10 0 -20 -84 -50 -137 -50 -29 0 -53 -4 -53 -10 0
-6 80 -10 220 -10 l220 0 0 61 c0 78 21 76 34 -4 l8 -57 53 0 c51 0 53 1 61
33 l8 32 3 -33 4 -32 262 0 262 0 -2 55 -2 55 42 -1 c28 -1 33 -3 16 -6 -22
-3 -28 -11 -33 -41 -3 -20 -6 -43 -6 -49 0 -10 74 -13 335 -13 302 0 337 2
355 17 27 24 27 57 0 48 -16 -5 -20 -2 -20 19 0 32 23 34 43 6 l14 -21 6 21 5
21 868 -6 c759 -5 870 -8 890 -22 31 -20 84 -10 114 22 13 13 27 22 33 18 5
-3 -1 -12 -14 -19 -23 -13 -23 -13 12 -9 29 3 41 -1 56 -19 34 -38 38 -49 14
-34 -12 7 -21 18 -21 24 0 7 -6 14 -12 17 -9 3 -13 -7 -14 -29 0 -30 2 -33 20
-28 18 6 19 5 7 -10 -12 -15 -6 -16 78 -16 70 0 98 4 119 17 24 16 26 16 14 1
-13 -16 13 -17 377 -18 l391 0 0 21 c0 20 -4 21 -49 16 -53 -6 -64 0 -74 41
-5 21 -3 22 71 22 73 0 79 -2 106 -30 33 -36 29 -65 -8 -56 -14 3 -28 2 -31
-4 -4 -7 170 -10 517 -10 l524 0 -4 38 c-2 28 -1 33 7 22 6 -8 11 -25 11 -37
l0 -23 1279 0 1280 0 17 59 18 59 315 4 c275 3 320 6 349 21 17 10 32 23 32
29 0 8 -174 9 -677 4 -373 -4 -1468 -11 -2434 -15 -1656 -8 -1758 -10 -1783
-27 -27 -17 -28 -17 -64 19 l-36 37 34 35 c38 39 46 42 70 20 14 -13 280 -16
2121 -25 1157 -5 2254 -13 2437 -16 294 -6 332 -5 332 8 0 37 -22 40 -369 46
l-339 5 -41 79 c-22 44 -41 90 -41 103 0 13 -4 35 -10 49 -9 25 -8 26 18 19
48 -14 687 -10 703 4 8 7 25 10 36 7 25 -7 114 17 189 52 l54 25 45 -48 c71
-77 88 -93 132 -124 24 -17 49 -42 57 -57 21 -41 66 -78 111 -92 75 -24 219
-91 231 -108 6 -10 42 -33 78 -51 36 -19 73 -45 82 -58 11 -18 20 -22 37 -17
12 4 25 12 29 18 5 6 7 150 6 319 l-2 309 -22 -49 c-55 -125 -269 -227 -439
-208 -65 7 -168 51 -200 85 -11 12 -34 36 -51 53 -38 39 -64 81 -64 102 0 13
-7 11 -33 -9 -18 -14 -65 -40 -103 -57 -55 -25 -82 -32 -131 -31 -44 0 -63 -3
-67 -14 -4 -12 -58 -14 -331 -14 -290 0 -326 2 -332 16 -3 9 4 44 16 78 14 40
21 85 21 132 0 75 27 169 68 234 24 39 16 58 -18 40 -16 -9 -25 -9 -36 1 -12
10 -14 56 -11 298 2 169 8 305 15 333 9 38 8 55 -3 89 -9 24 -15 78 -15 128 0
91 -10 131 -48 195 -14 24 -20 42 -14 48 5 5 67 8 139 6 l130 -3 42 -37 c55
-50 71 -50 71 3 l0 42 173 -6 c195 -6 272 -24 393 -92 133 -75 234 -180 234
-246 0 -32 5 -40 35 -59 52 -32 97 -147 110 -280 3 -41 9 -92 11 -113 2 -21
-1 -48 -8 -60 -6 -12 -12 -58 -13 -102 0 -44 -6 -105 -14 -135 -7 -30 -17 -73
-23 -95 -13 -54 -22 -169 -15 -198 8 -30 62 -84 111 -110 58 -30 193 -30 253
1 83 43 136 154 119 247 -14 79 -11 76 -50 60 -40 -17 -75 -8 -113 27 -24 22
-32 68 -12 68 6 0 1 13 -11 29 -43 62 -63 138 -62 244 0 48 9 58 30 32 27 -33
74 -61 124 -75 82 -22 138 -92 138 -169 0 -53 -15 -57 -61 -18 -37 32 -59 45
-59 34 0 -2 19 -24 43 -48 24 -25 52 -63 62 -84 l20 -40 3 149 c2 133 1 151
-15 166 -34 31 -69 50 -121 65 -29 9 -68 30 -88 47 -40 35 -85 41 -112 14 -13
-13 -17 -33 -16 -84 3 -107 10 -149 38 -205 14 -29 23 -61 20 -72 -7 -28 48
-110 88 -131 18 -10 48 -17 66 -15 29 1 32 -1 31 -26 0 -27 -17 -78 -18 -58
-2 12 -21 -16 -21 -30 0 -5 5 -3 10 5 5 8 10 10 10 4 0 -24 -67 -83 -113 -98
-59 -20 -61 -20 -127 0 -33 10 -67 29 -87 49 -28 28 -33 40 -33 82 0 26 11 93
24 148 39 163 49 258 47 430 -2 150 -52 315 -113 370 -27 25 -38 44 -38 64 0
16 -8 39 -18 52 -19 22 -19 22 43 83 70 70 124 145 186 264 l43 82 148 0 c85
0 148 4 148 9 0 6 -76 10 -183 10 -280 1 -671 53 -812 109 -94 37 -93 36 -67
18 26 -20 28 -43 7 -73 -31 -44 -75 -142 -75 -167 l0 -24 -146 -4 c-129 -3
-147 -5 -159 -22 -14 -18 -15 -18 -42 0 -23 15 -51 19 -154 22 -155 5 -199 -8
-199 -59 0 -17 14 -60 31 -95 30 -61 38 -113 50 -324 1 -8 -3 -62 -8 -120 -4
-58 -8 -207 -8 -332 0 -223 0 -227 23 -251 23 -24 23 -25 6 -63 -9 -22 -20
-84 -25 -144 -5 -76 -14 -121 -33 -165 -14 -33 -25 -54 -26 -47 0 7 -12 17
-26 22 -23 9 -26 14 -20 43 4 17 10 54 13 82 4 27 15 64 25 81 24 42 35 128
18 149 -14 17 -71 20 -98 6 -65 -36 -368 -98 -387 -80 -2 3 -5 251 -6 552 0
531 0 547 20 593 27 60 26 87 -3 121 l-24 28 -285 0 -285 0 -26 -24 c-37 -35
-41 -71 -14 -123 23 -42 23 -51 29 -423 7 -378 14 -482 40 -522 11 -19 10 -24
-12 -41 -23 -20 -24 -26 -31 -184 -7 -185 -5 -168 -17 -168 -4 0 -6 12 -3 26
3 19 1 25 -7 20 -7 -5 -11 2 -11 21 0 22 2 25 10 13 5 -8 10 -10 10 -5 0 6 -5
17 -10 25 -5 8 -10 10 -10 4 0 -7 -7 -14 -15 -18 -13 -4 -14 -2 -5 14 9 16 7
27 -10 50 -20 28 -20 31 -5 60 9 17 15 43 14 58 -1 15 -1 38 0 52 1 20 3 22
11 10 8 -11 10 -5 9 25 0 22 2 89 6 148 4 76 3 107 -4 102 -6 -3 -11 2 -11 12
0 11 -4 23 -9 28 -13 15 -34 190 -26 224 5 24 2 30 -14 36 -12 3 -21 13 -21
22 0 8 -6 13 -12 10 -7 -2 -13 -12 -13 -23 0 -10 -4 -25 -9 -33 -13 -20 -22 2
-18 46 3 32 9 41 34 52 28 13 30 16 24 56 -5 31 -3 45 9 55 8 7 15 20 15 29 0
10 -6 6 -18 -12 -12 -20 -24 -27 -42 -25 -20 2 -26 9 -28 37 -2 18 1 38 7 44
16 16 14 47 -3 47 -22 0 -25 44 -5 69 10 12 22 20 27 17 11 -6 62 16 62 27 0
4 -3 6 -7 6 -5 -1 -19 -1 -32 0 -18 1 -22 5 -18 21 3 12 0 20 -7 20 -17 0 -36
-21 -36 -41 0 -9 -7 -20 -16 -23 -10 -4 -13 -13 -9 -27 10 -30 -23 -99 -47
-99 -10 0 -21 -1 -25 -1 -5 -1 -13 9 -20 22 -35 69 -131 166 -195 198 -46 24
-76 60 -64 80 8 12 36 3 36 -11 0 -6 8 -17 18 -25 16 -14 16 -14 -2 -9 -15 5
-17 4 -7 -8 17 -20 51 -28 44 -10 -3 8 1 14 8 14 9 0 10 3 3 8 -8 5 -8 15 1
35 10 25 13 26 24 13 8 -9 26 -16 42 -16 21 0 28 -5 31 -22 2 -18 10 -23 33
-23 30 0 31 -1 18 -47 -8 -28 12 -21 61 20 48 40 55 56 30 66 -22 9 -24 8 -24
-9 0 -8 -4 -15 -10 -15 -5 0 -10 6 -10 14 0 7 -9 16 -20 19 -23 6 -27 37 -5
37 8 0 15 6 15 13 0 8 -10 13 -22 13 -17 -1 -23 6 -29 32 -4 19 -12 39 -18 45
-6 6 -11 21 -11 34 0 13 -6 23 -14 23 -15 0 -27 82 -15 101 9 15 38 -1 41 -23
3 -16 6 -14 22 14 10 18 13 27 5 21 -20 -20 -29 -16 -29 13 0 22 -2 25 -15 14
-12 -10 -15 -10 -15 2 0 20 -43 38 -72 32 -13 -3 -50 -10 -83 -15 -32 -5 -64
-14 -69 -19 -13 -13 -143 -13 -151 0 -3 6 -13 10 -22 10 -9 0 -24 7 -34 16
-16 14 -19 13 -40 -15 -13 -17 -29 -31 -36 -31 -21 0 -15 -36 9 -52 l22 -15
-39 -36 c-22 -20 -52 -42 -67 -48 -49 -20 -33 -36 42 -43 39 -4 85 -12 103
-18 32 -11 95 -55 131 -92 20 -19 19 -19 -45 -10 -35 5 -234 9 -441 9 -365 0
-378 -1 -392 -20 -23 -30 -19 -66 14 -137 16 -34 30 -76 30 -93 1 -16 7 -43
14 -60 10 -24 10 -34 -1 -55 -11 -20 -13 -124 -12 -520 1 -272 -2 -512 -6
-532 -6 -32 -9 -35 -21 -23 -8 7 -14 17 -14 22 0 12 -39 34 -50 28 -11 -7 -41
8 -65 32 -14 13 -21 14 -36 5 -14 -9 -19 -9 -19 -1 0 7 -10 -1 -22 -17 -13
-16 -23 -32 -23 -37 0 -5 -7 -14 -17 -21 -9 -6 -18 -21 -20 -33 -2 -16 -6 -18
-14 -9 -9 9 0 27 33 71 106 139 163 327 163 532 0 152 -23 279 -57 315 -20 21
-24 32 -19 56 6 23 -3 48 -39 117 -25 48 -44 88 -43 89 24 9 49 31 73 65 29
41 30 47 28 145 -1 84 -5 111 -26 158 -44 100 -111 114 -152 32 -22 -44 -40
-64 -99 -109 -43 -32 -87 -38 -155 -18 -25 6 -48 10 -52 7 -4 -2 -10 0 -14 6
-3 5 0 10 8 10 8 0 18 7 21 16 4 11 13 13 27 9 20 -7 21 -5 14 31 -4 22 -8 45
-8 52 0 15 -12 15 -38 -1 -17 -10 -22 -9 -33 6 -7 9 -18 17 -23 17 -15 0 -23
-38 -14 -63 11 -29 -7 -69 -28 -63 -9 3 -49 8 -88 12 -40 4 -73 9 -73 11 0 2
5 14 11 26 11 22 11 22 -14 -1 -14 -13 -27 -19 -31 -14 -8 13 24 54 39 48 17
-6 53 29 61 60 9 33 -8 69 -43 91 -54 34 -174 147 -217 203 -42 57 -136 236
-143 275 -2 11 -6 37 -9 58 -7 41 -20 52 -77 61 -36 6 -53 13 -84 34 -7 4 -25
42 -39 83 -15 40 -35 86 -45 100 -10 14 -21 37 -24 52 -4 15 -10 27 -14 27 -3
0 -22 14 -41 30 -19 17 -50 35 -67 41 -18 6 -33 16 -33 22 0 17 -38 39 -45 27
-11 -19 -73 -11 -88 10 -15 22 -35 25 -193 36 -71 5 -94 3 -103 -7 -6 -8 -25
-30 -42 -49 -16 -19 -37 -45 -46 -57 -16 -24 -52 -30 -69 -13 -6 6 -27 -2 -57
-21 -105 -65 -200 -87 -210 -49 -5 20 -27 28 -27 10 0 -5 -9 -10 -19 -10 -18
0 -18 3 -7 24 6 13 41 53 77 89 35 35 69 69 74 76 6 7 25 21 43 32 18 11 32
27 32 38 0 19 -6 21 -127 37 -24 3 -43 7 -43 8 0 2 7 51 15 111 15 104 15 111
-6 196 -12 49 -26 89 -31 89 -4 0 -8 7 -8 16 0 8 -4 12 -10 9 -5 -3 -10 -15
-10 -25 0 -31 -37 -43 -140 -46 -116 -3 -182 -15 -205 -37 -9 -10 -21 -15 -26
-12 -5 3 -27 1 -49 -5 l-41 -11 8 -82 c4 -45 7 -98 6 -118 -2 -54 -50 -154
-94 -194 -40 -35 -121 -81 -174 -97 -55 -16 -259 -33 -405 -33 -80 0 -135 -1
-122 -3 18 -3 21 -6 12 -17 -13 -15 -5 -55 11 -55 5 0 9 -6 9 -14 0 -7 11 -29
25 -49 l24 -36 -39 -40 c-44 -44 -46 -51 -27 -81 10 -17 9 -22 -2 -29 -11 -7
-10 -10 5 -14 16 -4 17 -5 2 -6 -10 0 -18 -3 -18 -6 0 -10 35 -45 45 -45 16
-1 172 -134 284 -243 209 -205 387 -446 415 -560 5 -22 19 -34 61 -53 30 -14
55 -29 55 -32 0 -4 -14 -18 -31 -32 l-30 -26 21 -54 c11 -30 33 -65 47 -77 23
-19 26 -28 24 -76 -1 -31 3 -58 9 -62 6 -4 -5 -20 -25 -39 -19 -18 -35 -42
-35 -52 0 -11 -13 -59 -29 -109 -24 -75 -29 -84 -31 -55 0 19 -8 53 -16 75 -9
22 -15 51 -15 64 1 13 -9 81 -21 150 -23 130 -27 225 -14 321 13 88 25 84
-340 88 l-314 3 -25 -25 c-30 -30 -31 -51 -4 -95 11 -18 19 -37 17 -41 -2 -4
-30 1 -63 11 -33 10 -88 26 -121 35 -57 16 -62 20 -70 53 -15 58 -33 62 -259
60 -110 0 -244 -1 -297 0 l-98 1 -6 40 c-5 31 -12 42 -30 46 -32 8 -57 49 -45
73 7 13 6 24 -4 37 -8 11 -15 31 -15 47 0 20 5 27 20 27 12 0 20 -7 20 -17 0
-9 7 -25 16 -34 16 -18 18 -18 45 -2 34 20 35 24 9 55 -11 12 -33 39 -50 58
-16 19 -54 63 -82 97 -29 34 -56 62 -59 62 -4 1 -9 -9 -13 -22 -4 -19 -13 -23
-51 -25 -41 -1 -45 0 -45 23 0 13 -4 27 -10 30 -13 8 -13 55 -1 55 5 0 11 10
13 21 5 34 30 44 65 27 l31 -15 21 61 c29 81 29 81 9 80 -12 -1 -18 5 -18 19
0 20 -1 20 -25 -3 -27 -26 -46 -19 -46 16 1 37 31 216 40 232 5 9 14 58 20
107 23 169 33 220 62 295 16 41 29 81 29 88 0 6 5 12 10 12 16 0 12 26 -6 41
-9 7 -28 38 -44 68 -26 52 -101 121 -130 121 -6 0 -10 4 -10 9 0 6 -31 36 -70
67 -38 32 -70 64 -70 71 0 7 -5 13 -10 13 -6 0 -10 15 -9 33 2 17 -3 42 -10
55 -6 12 -9 28 -5 34 5 7 3 8 -6 3 -10 -6 -12 -4 -7 7 3 9 -2 23 -12 32 -17
16 -19 16 -25 1 -5 -15 -7 -15 -22 -1 -19 20 -28 20 -21 2z m-1178 -695 c3 -5
1 -12 -5 -16 -5 -3 -10 1 -10 9 0 18 6 21 15 7z m3867 -26 c0 -5 -5 -11 -11
-13 -6 -2 -11 4 -11 13 0 9 5 15 11 13 6 -2 11 -8 11 -13z m-3843 -41 c2 -10
14 -32 27 -50 13 -17 24 -36 24 -43 0 -6 11 -21 25 -33 48 -41 15 -54 -41 -16
-27 18 -36 35 -49 88 -9 35 -21 70 -27 77 -9 11 -6 12 13 5 13 -5 26 -18 28
-28z m449 11 l20 -26 28 26 c30 28 75 33 94 10 10 -12 10 -21 0 -45 -14 -35
-11 -40 33 -55 44 -14 44 -46 -1 -59 -29 -8 -33 -12 -27 -35 17 -66 -7 -81
-59 -40 -26 21 -35 20 -68 -3 -22 -16 -48 5 -48 38 0 16 -8 28 -25 36 -14 6
-32 22 -40 34 -14 22 -14 25 8 39 18 12 23 22 19 45 -5 32 11 60 33 60 8 0 23
-11 33 -25z m3268 -203 l41 -37 -43 -50 -44 -50 -20 24 c-11 13 -20 29 -20 36
0 7 -7 18 -15 25 -13 11 -13 14 2 26 17 13 17 13 1 14 -25 0 -23 30 1 30 11 0
23 5 26 10 11 17 29 10 71 -28z m549 -102 c3 -5 15 -10 25 -10 11 0 24 -9 30
-19 5 -11 17 -27 26 -35 14 -15 14 -17 -2 -23 -9 -3 -25 -1 -36 6 -11 7 -28 9
-38 6 -13 -4 -28 2 -45 19 -14 14 -31 26 -36 26 -20 0 -3 24 22 31 36 10 47
10 54 -1z m-330 -40 c9 -16 22 -30 29 -30 21 0 41 -29 29 -41 -7 -7 -21 -5
-44 5 -19 8 -49 21 -66 28 -39 15 -42 31 -11 52 32 23 45 20 63 -14z m-95 -60
c0 -5 -4 -10 -9 -10 -6 0 -13 5 -16 10 -3 6 1 10 9 10 9 0 16 -4 16 -10z m-20
-142 c0 -6 -7 -5 -15 2 -8 7 -15 17 -15 22 0 6 7 5 15 -2 8 -7 15 -17 15 -22z
m-3585 -87 c-3 -10 -1 -31 5 -46 11 -28 5 -65 -10 -65 -4 0 -10 10 -13 22 -5
18 -8 19 -22 8 -9 -8 -15 -24 -13 -39 2 -20 -2 -27 -18 -29 -19 -3 -31 13 -38
49 -2 14 40 59 56 59 9 0 22 14 30 30 14 33 33 42 23 11z m1045 -46 c0 -8 -6
-15 -14 -15 -17 0 -28 14 -19 24 12 12 33 6 33 -9z m2517 -114 c3 -73 8 -100
23 -121 27 -38 27 -105 0 -120 -12 -6 -20 -21 -20 -37 0 -28 -65 -94 -112
-114 -15 -6 -28 -15 -28 -20 0 -5 -8 -9 -19 -9 -15 0 -19 11 -24 68 -7 72 4
179 22 226 17 43 6 43 -23 -1 -39 -59 -60 -138 -48 -185 7 -26 7 -40 -1 -45
-15 -9 -34 22 -53 85 -13 47 -14 63 -3 101 15 56 56 125 104 171 40 39 143
100 164 97 11 -2 15 -24 18 -96z m-2830 -7 c2 -6 -5 -14 -17 -17 -15 -4 -20 0
-20 15 0 21 30 23 37 2z m235 -21 c2 -23 9 -29 43 -35 22 -5 44 -13 49 -18 13
-13 -14 -72 -30 -66 -8 3 -14 -1 -14 -8 0 -8 6 -17 13 -19 6 -3 2 -6 -10 -6
-12 -1 -31 -13 -42 -27 -28 -36 -53 -28 -64 20 -8 32 -7 40 7 48 26 14 19 36
-14 43 -40 9 -38 19 10 38 37 14 55 37 29 37 -5 0 -7 5 -4 10 11 18 24 10 27
-17z m2702 -76 c-3 -9 -10 -17 -14 -17 -12 0 -23 38 -14 51 10 17 36 -14 28
-34z m-3174 14 c0 -13 -20 -18 -47 -13 -36 7 -27 22 12 22 19 0 35 -4 35 -9z
m130 -19 c0 -5 11 -14 25 -20 29 -13 34 -42 7 -42 -21 0 -92 47 -92 60 0 6 14
10 30 10 17 0 30 -4 30 -8z m-548 -26 c10 -7 15 -16 12 -19 -9 -8 -54 15 -48
24 7 12 16 11 36 -5z m1008 -56 c0 -5 -4 -10 -10 -10 -5 0 -10 5 -10 10 0 6 5
10 10 10 6 0 10 -4 10 -10z m5920 -61 c0 -5 -9 -9 -20 -9 -22 0 -27 16 -7 23
15 5 27 -1 27 -14z m218 -85 c-17 -16 -83 5 -83 26 0 8 18 24 40 36 l40 21 8
-36 c5 -24 4 -39 -5 -47z m-6491 54 c-3 -8 -6 -5 -6 6 -1 11 2 17 5 13 3 -3 4
-12 1 -19z m8919 -19 c67 -32 22 -149 -58 -149 -95 1 -131 80 -67 149 18 19
29 22 59 18 21 -3 51 -11 66 -18z m-2578 -38 c17 -10 5 -61 -14 -61 -17 0 -19
-17 -2 -22 7 -3 13 -28 14 -66 1 -59 0 -62 -20 -56 -11 4 -22 7 -23 8 -1 1 -3
29 -5 62 -1 39 2 67 10 77 9 10 10 17 2 22 -5 3 -10 15 -10 26 0 20 24 25 48
10z m-68 -30 c0 -10 -30 -24 -37 -17 -3 3 -2 9 2 15 8 13 35 15 35 2z m3190
-24 c0 -17 -64 -140 -103 -197 -44 -65 -117 -154 -134 -163 -14 -8 -84 43 -97
70 -3 7 17 36 45 65 48 51 128 163 151 213 10 23 17 25 75 25 45 0 63 -4 63
-13z m-4308 -39 c9 -20 23 -74 29 -121 12 -77 11 -89 -6 -126 -32 -73 -95 -90
-131 -37 -14 23 -14 27 1 50 10 14 21 26 26 26 14 0 61 88 57 107 -3 14 -8 10
-25 -17 -12 -19 -42 -52 -67 -73 -65 -54 -62 -87 17 -172 48 -51 120 -186 112
-208 -4 -8 -17 -20 -31 -27 l-24 -14 42 -21 c54 -27 68 -56 80 -164 19 -168
-14 -441 -53 -441 -5 0 -9 -11 -9 -25 0 -56 -83 -183 -176 -270 -162 -152
-422 -235 -648 -206 -50 7 -102 16 -116 20 -14 5 -45 14 -70 21 -76 22 -220
100 -220 120 0 5 7 16 16 25 22 22 14 27 -47 30 -46 2 -56 7 -86 41 -144 166
-213 353 -213 580 0 193 37 296 111 311 31 6 35 13 18 30 -8 8 -7 28 4 73 20
75 43 114 104 171 181 169 446 250 698 214 55 -8 118 -19 140 -25 22 -7 90
-15 150 -20 101 -7 112 -6 130 11 11 11 40 33 63 50 30 21 51 46 65 80 12 26
27 47 32 46 6 -2 18 -19 27 -39z m-1202 -13 c0 -8 -4 -15 -10 -15 -5 0 -10 7
-10 15 0 8 5 15 10 15 6 0 10 -7 10 -15z m-3443 -9 c-6 -16 17 -41 31 -33 18
12 33 -9 23 -34 -10 -24 -10 -24 -10 -1 -1 15 -7 22 -20 22 -21 0 -54 38 -45
52 9 14 26 9 21 -6z m5763 4 c0 -5 -7 -10 -16 -10 -8 0 -12 5 -9 10 3 6 10 10
16 10 5 0 9 -4 9 -10z m105 0 c3 -5 1 -10 -4 -10 -6 0 -11 5 -11 10 0 6 2 10
4 10 3 0 8 -4 11 -10z m75 -20 c0 -5 -2 -10 -4 -10 -3 0 -8 5 -11 10 -3 6 -1
10 4 10 6 0 11 -4 11 -10z m2430 -42 c65 -19 140 -58 175 -90 19 -17 33 -33
30 -36 -3 -3 -31 11 -63 31 -62 38 -170 81 -235 92 -20 4 -40 11 -42 16 -7 10
87 1 135 -13z m-8410 -28 c0 -5 -2 -10 -4 -10 -3 0 -8 5 -11 10 -3 6 -1 10 4
10 6 0 11 -4 11 -10z m-425 -20 c11 -1 32 1 47 5 23 6 29 3 42 -23 9 -17 16
-42 16 -56 0 -47 36 -164 90 -295 16 -41 30 -87 30 -103 0 -20 6 -31 23 -37
12 -5 36 -31 54 -57 17 -27 43 -60 57 -73 45 -42 27 -69 -22 -35 -13 9 -26 14
-29 11 -8 -9 53 -92 119 -163 34 -35 58 -67 55 -71 -8 -7 -63 15 -100 40 -16
10 -31 16 -35 13 -3 -4 -2 -10 3 -14 6 -4 23 -25 40 -47 30 -41 133 -147 173
-177 25 -21 29 -38 7 -38 -22 0 -108 45 -166 87 -27 19 -52 34 -54 31 -3 -2 4
-29 14 -59 45 -132 45 -134 28 -196 -10 -32 -13 -59 -8 -61 37 -12 94 -72 134
-140 72 -124 70 -132 -31 -132 -43 0 -83 5 -89 11 -8 8 -17 8 -31 0 -13 -7
-90 -11 -200 -11 -205 0 -195 -5 -186 89 5 45 0 85 -20 173 -15 63 -31 119
-34 125 -5 7 -60 12 -152 14 l-144 3 -7 -29 c-4 -17 -17 -68 -29 -115 -17 -65
-21 -103 -17 -162 3 -48 1 -80 -6 -87 -7 -7 -100 -11 -289 -11 -317 0 -315 -1
-260 73 77 104 148 247 179 362 3 11 9 25 13 30 3 6 13 29 20 53 7 24 22 48
33 53 14 8 18 18 14 36 -5 29 -2 44 43 163 17 47 36 96 40 110 30 91 83 229
96 247 9 15 29 25 54 29 l39 6 -14 29 c-29 56 -15 172 31 262 15 28 15 31 -1
39 -37 21 -85 71 -85 89 0 19 8 20 248 15 136 -2 256 -5 267 -6z m910 2 c6 0
93 1 195 2 156 1 185 -1 185 -14 0 -8 -14 -24 -32 -36 -17 -12 -28 -25 -24
-30 11 -13 -2 -447 -14 -451 -38 -13 -40 -22 -12 -51 l28 -29 -3 -347 c-3
-343 -3 -347 17 -342 11 2 58 7 105 11 134 9 279 45 337 83 13 8 29 12 37 9
11 -5 11 -15 -5 -63 -11 -32 -24 -63 -29 -68 -6 -6 -10 -24 -11 -41 0 -16 -15
-73 -32 -125 l-32 -95 -57 -3 c-54 -3 -59 -1 -70 23 -14 31 -22 32 -36 0 l-12
-25 -219 0 c-213 0 -221 1 -232 21 l-11 21 -22 -21 c-20 -19 -34 -21 -139 -21
-64 0 -118 4 -121 9 -3 5 5 43 19 85 l25 77 0 441 c0 323 3 451 12 475 9 26
10 36 1 41 -8 5 -13 61 -15 167 -3 152 -4 163 -31 218 -42 85 -37 90 86 83 56
-3 107 -5 112 -4z m1130 -2 c8 -13 48 -13 62 1 5 5 34 9 64 7 42 -2 53 -6 51
-18 -28 -119 -26 -187 9 -360 7 -30 12 -83 13 -117 1 -34 7 -67 12 -75 6 -7
16 -38 22 -68 6 -30 15 -79 21 -108 6 -30 11 -77 11 -105 0 -58 10 -53 29 13
8 25 17 56 21 70 5 14 27 86 50 160 24 74 46 139 51 144 4 5 24 10 44 11 20 1
39 5 42 9 3 3 -9 24 -27 47 l-33 41 23 72 c13 39 32 100 43 136 46 154 64 165
96 58 13 -40 31 -98 41 -128 10 -30 37 -116 60 -190 23 -74 48 -154 56 -178
12 -38 12 -45 -3 -68 -15 -24 -15 -25 5 -31 23 -5 51 -59 72 -136 17 -64 26
-66 33 -9 3 26 15 101 27 167 11 66 25 145 30 175 5 30 15 84 22 120 6 36 13
130 13 208 1 112 5 146 16 153 8 5 106 9 218 9 176 0 207 -2 223 -17 17 -15
19 -15 36 0 22 20 71 22 78 4 2 -7 -11 -44 -30 -83 -19 -38 -44 -105 -56 -149
-12 -44 -29 -94 -37 -112 -9 -18 -13 -38 -10 -46 3 -8 -3 -45 -12 -83 -10 -38
-33 -134 -52 -214 -33 -140 -35 -146 -79 -192 l-46 -48 21 -20 c24 -24 24 -76
1 -160 -8 -30 -20 -73 -26 -95 -6 -22 -15 -49 -20 -60 -5 -11 -11 -45 -15 -75
-3 -30 -15 -88 -26 -127 -10 -40 -19 -82 -19 -93 0 -25 -42 -37 -75 -22 -15 7
-26 8 -30 2 -4 -6 -65 -10 -140 -10 -130 0 -135 1 -159 25 -14 14 -28 38 -32
53 -3 15 -13 59 -23 98 -12 49 -14 77 -8 92 8 17 5 25 -10 39 -13 12 -28 52
-43 118 -29 128 -28 125 -38 125 -9 0 -32 -87 -73 -280 -6 -30 -15 -66 -19
-80 -4 -14 -13 -52 -20 -85 -23 -114 -1 -104 -224 -104 -218 -1 -205 -5 -225
75 -5 22 -23 93 -41 159 -18 66 -35 140 -39 165 -4 25 -10 50 -14 57 -7 10
-46 152 -67 243 -5 19 -18 70 -29 113 -12 42 -30 112 -42 155 -11 42 -24 93
-29 112 -5 19 -23 89 -41 155 -17 66 -32 144 -33 174 -1 44 -5 56 -24 69 -25
17 -82 94 -82 111 0 15 426 15 435 1z m3516 -1 c15 -7 24 -7 35 1 18 16 525
10 545 -6 8 -6 33 -14 56 -17 65 -8 186 -73 248 -132 131 -126 161 -308 81
-485 -24 -55 -31 -60 -81 -60 l-41 0 4 -40 c5 -48 -10 -69 -63 -90 -19 -8 -35
-20 -35 -27 0 -17 57 -132 106 -216 20 -34 39 -67 43 -73 12 -23 116 -161 234
-311 48 -61 87 -116 87 -122 0 -8 -68 -11 -213 -11 l-213 0 -42 43 c-23 23
-42 50 -42 60 0 9 -6 17 -14 17 -41 0 -196 219 -288 410 -59 121 -78 149 -78
116 0 -8 -5 -16 -11 -18 -6 -2 -5 -14 5 -33 11 -20 16 -58 16 -117 0 -82 -2
-89 -25 -104 l-24 -16 23 -36 c18 -28 25 -57 29 -114 4 -54 14 -96 31 -135 27
-58 23 -90 -8 -64 -10 8 -16 9 -21 1 -4 -6 -48 -10 -110 -10 -101 0 -104 1
-124 27 l-21 28 -21 -28 c-21 -27 -22 -27 -139 -27 -70 0 -121 4 -125 10 -4 6
4 38 16 73 22 60 42 263 39 387 0 25 -3 211 -6 414 l-5 369 32 33 c29 30 30
32 12 38 -25 8 -43 47 -43 91 0 19 -13 60 -30 92 -33 63 -36 79 -17 86 24 10
178 7 198 -4z m1566 0 c8 -8 17 -8 33 1 31 17 288 10 299 -8 5 -8 0 -30 -12
-53 -15 -31 -21 -68 -25 -157 -3 -91 -9 -124 -23 -148 -23 -39 -23 -42 -1 -40
16 1 17 -26 20 -409 1 -225 -2 -429 -7 -452 -7 -37 -7 -41 8 -34 9 5 61 11
116 15 109 7 169 18 257 48 32 11 62 17 67 14 4 -3 19 3 31 14 24 21 40 26 40
12 0 -15 -40 -116 -50 -126 -5 -5 -10 -23 -10 -40 0 -28 -11 -70 -32 -125 -7
-19 -14 -22 -37 -18 -37 8 -48 -3 -18 -17 14 -7 22 -21 22 -36 l0 -25 -243 -3
c-237 -2 -244 -2 -249 18 -7 25 -9 25 -40 0 -24 -18 -41 -20 -214 -20 -114 0
-190 4 -194 10 -3 5 5 25 18 42 37 50 40 69 46 248 l6 164 35 24 c19 13 43 21
52 18 28 -7 21 10 -12 34 -39 28 -52 52 -57 113 -2 28 -8 59 -14 68 -5 10 -9
171 -9 371 0 351 -1 353 -25 413 -23 55 -23 60 -8 77 13 15 33 18 118 18 60 0
105 -4 112 -11z m-3425 -18 c12 -14 16 -33 13 -67 -2 -26 0 -43 4 -38 13 14
31 74 31 101 0 21 4 24 28 21 18 -2 26 -8 23 -18 -14 -54 -14 -63 1 -58 8 4
21 2 28 -2 10 -6 4 -14 -23 -30 -20 -12 -37 -25 -37 -28 0 -4 -20 -29 -45 -56
-45 -50 -65 -99 -80 -193 -4 -26 -12 -43 -20 -43 -16 0 -59 -54 -74 -92 -6
-15 -17 -68 -26 -119 -13 -75 -14 -111 -5 -204 18 -196 76 -352 181 -491 64
-84 86 -104 121 -111 16 -3 28 -11 28 -18 0 -41 179 -140 320 -177 153 -39
450 -25 549 27 26 13 30 13 35 -1 3 -9 4 -20 0 -25 -3 -5 -1 -9 5 -9 5 0 3
-24 -6 -57 -20 -77 -20 -108 2 -130 18 -17 18 -18 -15 -21 -41 -4 -53 11 -45
63 3 22 6 45 5 50 -1 6 -3 30 -4 55 -2 24 -9 46 -16 48 -7 3 -10 0 -6 -7 5 -7
1 -9 -10 -4 -14 5 -15 1 -10 -24 4 -16 2 -42 -3 -57 -10 -25 -12 -26 -38 -13
-49 23 -68 13 -84 -46 -11 -38 -13 -40 -18 -17 -4 14 -10 20 -13 14 -8 -12 -6
-34 6 -52 6 -10 -14 -12 -98 -11 -58 1 -106 5 -106 8 0 3 -5 13 -10 21 -8 13
-11 12 -23 -4 -20 -28 -40 -11 -35 30 5 41 -2 42 -38 9 -35 -32 -40 -31 -47 5
-4 17 -13 30 -21 30 -26 0 -27 -18 -1 -48 33 -39 32 -52 -5 -52 -27 0 -30 3
-30 31 0 31 -31 68 -58 69 -15 0 -35 -48 -27 -68 4 -12 -2 -14 -37 -9 -29 4
-38 3 -27 -4 11 -8 10 -9 -6 -6 -11 2 -19 9 -17 16 2 8 -4 10 -17 6 -11 -3
-22 -1 -26 4 -3 7 0 8 9 5 10 -4 20 6 31 33 15 36 15 39 -4 54 -11 9 -23 32
-26 53 -4 20 -11 36 -17 36 -5 0 -8 -6 -6 -13 4 -18 -42 -78 -54 -71 -5 4 -8
18 -5 33 6 31 -1 46 -23 46 -12 0 -14 10 -12 42 2 24 1 43 -2 43 -19 0 -46
-38 -46 -65 l-1 -30 -17 27 c-30 50 -44 32 -49 -64 -2 -46 1 -67 8 -63 5 4 21
0 34 -9 18 -12 24 -24 22 -46 -3 -40 -21 -32 -27 11 -4 28 -9 34 -30 35 -62 2
-102 43 -66 69 21 16 22 85 2 85 -10 0 -17 -16 -22 -45 -3 -25 -10 -42 -15
-39 -5 3 -9 -4 -9 -14 0 -11 -7 -22 -15 -26 -19 -7 -29 32 -21 77 9 52 -5 64
-47 38 -40 -25 -48 -42 -47 -98 2 -62 -14 -135 -31 -146 -13 -8 -23 -5 -44 11
-15 12 -40 22 -56 22 -18 0 -32 7 -39 21 -11 20 -12 20 -38 -8 -15 -15 -25
-31 -24 -36 1 -4 -358 -7 -798 -7 -633 0 -800 3 -801 13 0 9 -2 9 -6 0 -3 -10
-50 -13 -183 -13 l-178 0 -6 35 c-9 45 -25 53 -47 24 -18 -24 -19 -24 -19 -2
0 12 4 24 9 27 5 4 5 17 -1 34 -8 20 -29 37 -82 62 l-71 35 235 5 c129 3 274
4 322 2 l87 -3 3 -32 c3 -32 3 -32 16 -9 11 18 11 26 1 38 -9 11 -9 18 4 32 8
9 20 37 27 62 26 100 52 188 70 245 28 83 26 119 -6 144 -35 27 -49 27 -126
-8 -68 -31 -169 -55 -280 -66 l-67 -7 -5 333 c-2 184 -4 341 -5 349 -3 58 13
226 23 233 8 6 8 10 -1 14 -21 8 -15 23 10 23 37 0 45 12 42 65 -3 41 -1 46 8
28 5 -13 14 -23 19 -23 4 0 8 -6 8 -12 0 -7 9 -24 20 -38 l19 -25 16 23 c9 12
21 22 27 22 7 0 -1 -13 -16 -29 l-28 -29 41 -27 c23 -15 41 -33 41 -40 0 -7
18 -29 41 -50 41 -36 41 -36 56 -16 8 12 23 21 34 21 23 0 26 36 5 83 -7 18
-21 51 -31 75 -10 23 -24 47 -32 53 -17 15 -17 29 1 29 8 0 24 -15 36 -34 11
-19 25 -36 30 -38 11 -3 48 -103 60 -158 4 -19 31 -123 59 -230 28 -107 69
-264 91 -348 22 -84 44 -161 49 -170 5 -9 12 -37 16 -62 17 -101 94 -384 109
-399 24 -24 426 -30 461 -7 27 18 39 53 86 261 28 121 33 136 40 107 4 -19 12
-39 18 -45 6 -6 11 -25 11 -43 0 -17 11 -76 25 -130 22 -88 29 -103 62 -131
l38 -33 198 0 198 0 23 25 c24 26 45 98 67 233 11 73 19 103 48 202 40 134 46
168 34 211 -10 36 -8 43 13 68 13 16 28 41 34 56 13 35 96 374 105 430 3 22
12 56 20 75 7 19 19 58 26 85 12 49 45 125 54 125 2 0 0 -12 -5 -27 -9 -26 -9
-27 5 -9 15 19 15 19 16 -5 1 -16 3 -18 6 -7 2 9 10 15 17 12 7 -3 16 3 20 13
3 10 12 28 20 41 11 19 11 30 1 60 -19 53 -4 70 27 33z m-3374 -3 c-2 -6 -10
-14 -16 -16 -7 -2 -10 2 -6 12 7 18 28 22 22 4z m3335 -45 c8 -7 -11 -33 -24
-33 -5 0 -9 9 -9 20 0 19 20 27 33 13z m-727 -291 c-41 -277 -49 -317 -65
-299 -7 9 -10 20 -7 25 6 10 -1 37 -48 201 -37 129 -45 170 -26 141 7 -11 10
-12 10 -2 0 21 27 45 33 29 3 -6 6 0 6 16 1 17 6 27 16 27 8 0 15 -4 15 -10 0
-18 16 -10 30 15 7 13 17 22 22 19 4 -3 8 0 8 6 0 6 5 8 10 5 6 -3 11 4 11 17
1 17 3 18 6 5 2 -9 -7 -97 -21 -195z m3701 -44 c-3 -8 -6 -5 -6 6 -1 11 2 17
5 13 3 -3 4 -12 1 -19z m0 -50 c-3 -8 -6 -5 -6 6 -1 11 2 17 5 13 3 -3 4 -12
1 -19z m-6 -75 c-12 -20 -14 -14 -5 12 4 9 9 14 11 11 3 -2 0 -13 -6 -23z
m-107 -230 c-14 -13 -18 -29 -16 -58 2 -30 0 -36 -8 -25 -6 9 -10 10 -10 3 0
-6 3 -14 8 -17 4 -2 7 -25 7 -49 0 -25 3 -43 6 -41 9 5 20 -40 25 -100 2 -32
12 -60 29 -82 15 -19 22 -39 19 -49 -4 -10 2 -24 15 -36 19 -18 28 -39 17 -39
-7 0 -120 151 -145 195 -88 149 -105 185 -83 185 15 0 82 72 82 89 0 9 15 23
33 31 39 19 47 16 21 -7z m-7784 -93 c0 -5 -4 -10 -8 -10 -5 0 -17 -18 -28
-40 -10 -22 -22 -40 -26 -40 -3 0 -9 -13 -13 -30 -4 -16 -11 -30 -16 -30 -5 0
-9 -13 -9 -29 0 -17 -4 -33 -10 -36 -6 -4 -10 35 -10 109 l0 116 60 0 c33 0
60 -4 60 -10z m68 -147 c12 -49 28 -124 37 -168 16 -80 30 -111 39 -84 3 8 15
52 27 99 23 91 82 210 104 210 15 0 31 -59 45 -170 6 -41 13 -96 16 -122 4
-26 10 -45 15 -43 11 7 -10 -63 -31 -106 -10 -19 -37 -59 -61 -89 -31 -40 -42
-62 -43 -91 -2 -73 0 -74 299 -77 146 -2 265 -5 265 -8 0 -3 -5 -15 -11 -26
-8 -15 -8 -26 1 -43 13 -23 69 -55 98 -55 10 0 28 -7 41 -17 49 -34 117 -64
161 -70 105 -15 -29 -21 -522 -23 -282 -1 -521 -2 -532 -1 -16 1 -14 6 13 33
17 17 40 57 52 87 18 47 20 69 15 133 -4 43 -11 89 -16 104 -6 14 -10 49 -10
79 0 29 -12 122 -26 206 -35 205 -37 354 -5 335 5 -3 18 -45 29 -93z m7192
-238 c0 -3 19 -33 43 -67 23 -33 53 -77 66 -97 13 -20 35 -48 48 -62 l25 -27
-26 2 c-19 1 -25 5 -21 16 3 10 0 9 -9 -3 -10 -13 -15 -15 -18 -5 -4 11 -8 10
-21 -1 -9 -7 -28 -11 -42 -9 -14 3 -25 0 -26 -6 0 -7 -2 -7 -5 1 -3 7 -11 10
-19 7 -18 -7 -45 81 -45 145 0 25 -6 58 -14 72 -11 22 -11 29 0 44 8 10 14 30
14 44 0 24 1 24 25 -11 14 -20 25 -40 25 -43z m-8443 -27 c-3 -7 -5 -2 -5 12
0 14 2 19 5 13 2 -7 2 -19 0 -25z m2337 5 c6 -20 36 -152 36 -158 0 -2 -10 -2
-22 1 -54 11 -97 12 -106 1 -9 -11 -35 -104 -87 -302 l-15 -60 5 120 c3 66 10
144 16 173 12 59 6 90 -14 75 -6 -5 -24 -8 -39 -7 -16 2 -28 -2 -28 -8 0 -6
-2 -9 -5 -6 -3 2 -1 18 4 34 5 16 15 57 22 92 l13 62 107 0 c94 0 108 -2 113
-17z m-1177 -15 c6 -7 15 -27 21 -44 9 -27 7 -34 -11 -49 -18 -16 -19 -18 -3
-27 9 -5 20 -7 25 -4 12 8 21 -18 14 -42 -3 -14 -16 -22 -44 -26 -21 -3 -39
-12 -40 -19 0 -6 -5 3 -10 20 -5 18 -15 32 -21 30 -13 -2 -27 56 -27 120 -1
35 2 41 17 38 10 -2 25 1 33 6 20 12 35 11 46 -3z m7921 -13 c-3 -3 -9 2 -12
12 -6 14 -5 15 5 6 7 -7 10 -15 7 -18z m26 -21 c3 -8 2 -12 -4 -9 -6 3 -10 10
-10 16 0 14 7 11 14 -7z m-1558 -111 c-11 -11 -19 6 -11 24 8 17 8 17 12 0 3
-10 2 -21 -1 -24z m-242 -147 c-3 -9 -12 -12 -22 -9 -15 6 -9 11 25 22 1 1 0
-5 -3 -13z m-54 -26 c0 -5 -4 -10 -10 -10 -5 0 -10 5 -10 10 0 6 5 10 10 10 6
0 10 -4 10 -10z m1490 -29 c0 -5 -7 -11 -14 -14 -10 -4 -13 -1 -9 9 6 15 23
19 23 5z m-310 -21 c0 -5 -5 -10 -11 -10 -5 0 -7 5 -4 10 3 6 8 10 11 10 2 0
4 -4 4 -10z m-5820 -37 c-1 -21 -7 -49 -14 -62 -11 -20 -14 -21 -19 -6 -8 20
12 105 24 105 5 0 9 -17 9 -37z m5316 20 c6 -20 4 -17 61 -104 41 -61 42 -64
23 -73 -11 -5 -20 -13 -20 -18 0 -4 -4 -8 -10 -8 -5 0 -10 7 -10 15 0 28 -41
97 -60 102 -11 3 -22 13 -25 24 -4 11 -12 16 -21 12 -9 -3 -14 2 -14 15 0 12
-4 24 -10 27 -23 14 -7 25 35 25 35 0 47 -4 51 -17z m-7096 -28 c0 -27 -10
-37 -28 -26 -9 5 -9 13 0 33 15 31 28 27 28 -7z m6439 -39 c-5 -12 -12 -29
-15 -38 -10 -30 -24 -20 -24 16 0 39 28 76 41 55 4 -7 3 -22 -2 -33z m-6400
-63 c0 -47 -3 -62 -9 -48 -16 37 -11 115 7 115 2 0 3 -30 2 -67z m5222 -83
c38 -39 69 -74 69 -78 0 -4 -33 -41 -74 -81 l-75 -74 -65 63 c-36 34 -68 72
-72 83 -5 15 9 35 62 88 38 38 72 69 77 69 5 0 40 -32 78 -70z m914 12 c-22
-5 -29 3 -21 25 7 17 8 17 22 -2 13 -18 13 -20 -1 -23z m902 12 c-3 -3 -12 -4
-19 -1 -8 3 -5 6 6 6 11 1 17 -2 13 -5z m143 -4 c0 -5 -4 -10 -9 -10 -6 0 -13
5 -16 10 -3 6 1 10 9 10 9 0 16 -4 16 -10z m-5703 -16 c-3 -3 -12 -4 -19 -1
-8 3 -5 6 6 6 11 1 17 -2 13 -5z m3415 -41 c15 -15 28 -34 28 -43 0 -17 -49
-70 -65 -70 -5 0 -16 7 -26 16 -16 14 -189 17 -1781 25 -2245 11 -3289 20
-3306 29 -8 4 231 10 530 13 521 7 1077 10 3453 23 898 4 1083 8 1100 19 28
20 35 18 67 -12z m1444 -144 c9 -16 -21 -43 -40 -36 -9 4 -16 16 -16 27 0 15
7 20 24 20 14 0 28 -5 32 -11z m-816 -9 c0 -5 -4 -10 -10 -10 -5 0 -10 5 -10
10 0 6 5 10 10 10 6 0 10 -4 10 -10z"/>
<path d="M6803 1924 c-17 -7 -43 -29 -58 -48 -29 -38 -65 -125 -65 -156 0 -11
-4 -20 -9 -20 -13 0 -13 -237 0 -310 24 -138 60 -231 141 -364 34 -56 48 -90
48 -116 0 -35 1 -36 33 -32 24 3 43 -4 77 -29 104 -76 170 -94 233 -64 37 18
64 56 96 138 13 31 26 57 30 57 3 0 7 55 9 123 5 212 -33 381 -125 559 -75
143 -165 228 -279 263 -59 18 -89 18 -131 -1z m169 -73 c26 -12 62 -38 80 -58
18 -20 40 -43 48 -52 8 -9 27 -35 41 -57 95 -145 139 -314 139 -539 0 -117 -3
-136 -27 -199 -31 -78 -73 -126 -109 -126 -31 0 -90 30 -135 67 -18 15 -46 33
-62 38 -21 7 -34 20 -42 45 -7 19 -29 60 -49 90 -102 152 -139 283 -138 481 0
137 9 184 48 262 32 63 51 76 108 73 28 -2 72 -13 98 -25z"/>
<path d="M6870 1843 c16 -8 12 -23 -5 -17 -8 4 -15 1 -15 -5 0 -6 9 -11 21
-11 23 0 24 31 1 36 -7 1 -8 0 -2 -3z"/>
<path d="M6963 1766 c0 -8 6 -12 14 -9 7 3 10 9 7 14 -8 14 -21 11 -21 -5z"/>
<path d="M6852 1737 c-40 -24 -77 -88 -59 -106 8 -8 7 -11 -6 -11 -14 0 -16
-6 -11 -27 4 -16 15 -35 25 -43 16 -12 20 -33 23 -120 3 -58 9 -118 14 -135
l9 -30 7 29 c4 17 16 42 27 57 10 15 19 34 19 43 0 8 4 25 9 38 20 51 31 107
35 171 2 37 9 74 16 82 7 9 10 18 6 22 -3 3 -6 1 -6 -5 0 -9 -5 -9 -17 -3 -10
5 -26 12 -35 15 -9 2 -18 13 -20 24 -3 18 -4 18 -36 -1z"/>
<path d="M7023 1683 c-7 -2 -13 -9 -13 -15 0 -5 -6 -24 -14 -41 -8 -18 -19
-54 -26 -82 -6 -27 -16 -59 -20 -70 -5 -11 -11 -33 -15 -50 -3 -16 -12 -58
-19 -92 -8 -35 -10 -67 -5 -75 14 -21 10 -58 -5 -58 -27 0 -28 -38 -1 -94 14
-31 30 -58 35 -61 5 -3 11 -19 15 -35 6 -29 35 -43 35 -17 0 7 7 22 15 33 15
19 15 19 30 0 14 -18 15 -14 13 45 -3 72 38 229 60 229 6 0 12 -9 12 -20 0
-30 29 -24 36 8 3 15 7 32 9 37 5 19 -16 45 -35 45 -24 0 -26 36 -7 155 16 93
14 105 -18 105 -24 0 -80 39 -57 40 7 0 10 5 7 10 -7 11 -13 11 -32 3z"/>
<path d="M7110 1150 c-14 -26 -3 -80 16 -80 26 0 33 89 7 97 -6 2 -17 -5 -23
-17z"/>
<path d="M2397 1683 c-3 -16 -12 -57 -22 -93 -48 -190 -75 -304 -75 -321 0
-17 8 -19 84 -19 46 0 92 -3 102 -7 15 -5 16 -2 10 23 -4 16 -12 53 -17 82 -5
28 -14 78 -20 110 -15 79 -27 148 -35 205 -8 53 -19 61 -27 20z m31 -335 l9
-48 -38 0 c-44 0 -45 1 -23 78 28 102 25 103 52 -30z"/>
<path d="M8497 1913 c-6 -9 -10 -232 -8 -411 1 -97 4 -124 15 -128 29 -11 135
47 185 102 68 74 85 114 89 209 3 74 1 83 -26 125 -32 50 -85 81 -170 99 -63
13 -79 14 -85 4z m157 -82 c51 -25 76 -72 75 -139 -1 -88 -56 -181 -136 -233
l-48 -30 -5 108 c-3 59 -4 156 -2 216 l3 109 35 -5 c20 -3 55 -15 78 -26z"/>
<path d="M3980 1772 c0 -5 7 -13 16 -16 10 -4 14 -1 12 6 -5 15 -28 23 -28 10z"/>
<path d="M4030 1705 c0 -8 5 -15 10 -15 6 0 10 7 10 15 0 8 -4 15 -10 15 -5 0
-10 -7 -10 -15z"/>
<path d="M4080 1610 c0 -5 5 -10 11 -10 5 0 7 5 4 10 -3 6 -8 10 -11 10 -2 0
-4 -4 -4 -10z"/>
<path d="M4046 1461 c-4 -7 -5 -15 -2 -18 9 -9 19 4 14 18 -4 11 -6 11 -12 0z"/>
<path d="M4232 380 c0 -14 2 -19 5 -12 2 6 2 18 0 25 -3 6 -5 1 -5 -13z"/>
<path d="M4480 361 c-12 -24 -13 -34 -1 -27 5 3 14 -1 21 -9 13 -15 45 -21 38
-7 -34 70 -41 75 -58 43z"/>
<path d="M7014 344 c3 -9 6 -18 6 -20 0 -2 9 -4 20 -4 23 0 26 10 8 28 -18 18
-41 15 -34 -4z"/>
<path d="M6965 300 c-3 -5 1 -10 9 -10 9 0 16 5 16 10 0 6 -4 10 -9 10 -6 0
-13 -4 -16 -10z"/>
<path d="M4458 293 c7 -3 16 -2 19 1 4 3 -2 6 -13 5 -11 0 -14 -3 -6 -6z"/>
<path d="M4518 293 c6 -2 18 -2 25 0 6 3 1 5 -13 5 -14 0 -19 -2 -12 -5z"/>
<path d="M9130 1030 c0 -5 5 -10 10 -10 6 0 10 5 10 10 0 6 -4 10 -10 10 -5 0
-10 -4 -10 -10z"/>
<path d="M9150 1004 c0 -10 31 -36 37 -31 3 3 -2 13 -10 22 -16 15 -27 19 -27
9z"/>
<path d="M1288 723 c7 -3 16 -2 19 1 4 3 -2 6 -13 5 -11 0 -14 -3 -6 -6z"/>
<path d="M6141 239 c-22 -24 -41 -46 -41 -49 0 -3 19 -25 43 -48 l43 -42 44
45 44 45 -45 46 -46 46 -42 -43z"/>
<path d="M3445 4173 c-86 -86 -97 -251 -28 -406 45 -99 84 -99 103 1 6 31 15
75 21 97 35 126 39 284 8 321 -20 24 -73 17 -104 -13z m56 -96 c14 -30 -3
-250 -21 -271 -21 -26 -40 -18 -60 27 -32 70 -20 199 22 245 27 28 46 28 59
-1z"/>
<path d="M0 3951 c0 -174 2 -177 72 -108 24 24 51 46 62 50 12 5 16 13 11 25
-12 33 -47 77 -81 102 -18 14 -34 32 -34 41 0 9 -7 22 -15 29 -13 11 -15 -5
-15 -139z m30 -115 c0 -3 -4 -8 -10 -11 -5 -3 -10 -1 -10 4 0 6 5 11 10 11 6
0 10 -2 10 -4z"/>
<path d="M2400 4055 c0 -14 4 -25 9 -25 12 0 19 21 13 38 -8 21 -22 13 -22
-13z"/>
<path d="M2300 4051 c0 -5 7 -11 15 -15 8 -3 20 -17 25 -31 11 -30 31 -25 23
5 -8 30 -63 66 -63 41z"/>
<path d="M177 4026 c-7 -19 6 -69 20 -73 15 -5 26 28 13 41 -5 5 -10 18 -10
28 0 21 -16 24 -23 4z"/>
<path d="M2272 3968 c6 -18 28 -21 28 -4 0 9 -7 16 -16 16 -9 0 -14 -5 -12
-12z"/>
<path d="M2383 3963 c-7 -17 6 -44 24 -50 13 -5 24 22 17 41 -8 22 -34 28 -41
9z"/>
<path d="M4525 3948 c-73 -41 -120 -165 -117 -303 3 -84 14 -126 44 -171 27
-39 56 -54 107 -54 48 0 115 56 151 126 22 43 25 62 25 149 0 91 -3 105 -30
160 -45 90 -119 128 -180 93z m90 -134 c41 -44 45 -180 7 -246 -21 -36 -58
-55 -80 -42 -37 23 -54 75 -47 148 7 80 18 112 47 144 28 29 44 28 73 -4z"/>
<path d="M7080 3840 c0 -98 16 -122 18 -28 1 40 -3 80 -8 88 -7 10 -10 -9 -10
-60z"/>
<path d="M164 3885 c-4 -8 -3 -23 2 -32 4 -10 8 -36 8 -57 1 -44 16 -55 40
-31 22 22 20 57 -5 99 -23 39 -36 45 -45 21z"/>
<path d="M9250 3840 c-8 -5 -11 -12 -8 -16 4 -3 14 1 23 10 18 17 9 21 -15 6z"/>
<path d="M2055 3810 c-3 -5 -1 -10 4 -10 6 0 11 5 11 10 0 6 -2 10 -4 10 -3 0
-8 -4 -11 -10z"/>
<path d="M6956 3795 c4 -16 13 -42 21 -57 7 -16 10 -28 6 -28 -10 0 19 -20 30
-20 17 0 4 39 -29 85 -31 44 -35 46 -28 20z"/>
<path d="M250 3770 c-10 -19 -8 -20 40 -20 52 0 64 12 31 30 -31 16 -59 12
-71 -10z"/>
<path d="M725 3750 c-3 -5 -2 -10 4 -10 5 0 13 5 16 10 3 6 2 10 -4 10 -5 0
-13 -4 -16 -10z"/>
<path d="M11888 3686 c-75 -33 -188 -193 -188 -264 l0 -42 70 0 c72 0 132 17
183 52 25 18 27 25 27 84 0 68 -16 150 -33 172 -11 15 -23 14 -59 -2z"/>
<path d="M11356 3618 c-9 -12 -16 -26 -16 -31 0 -13 29 12 41 35 14 26 -6 23
-25 -4z"/>
<path d="M3915 3341 c-7 -22 10 -61 26 -61 14 0 7 73 -8 77 -6 2 -14 -5 -18
-16z"/>
<path d="M7725 3351 c-3 -6 -24 -13 -48 -16 -58 -9 -81 -27 -74 -61 6 -32 -15
-59 -63 -81 -61 -29 -87 -52 -93 -82 -9 -43 -52 -64 -90 -45 -25 13 -27 13
-27 -3 1 -10 13 -36 29 -58 36 -52 65 -51 162 6 82 47 214 168 222 202 3 12
11 36 18 53 10 26 10 37 0 63 -14 31 -25 39 -36 22z"/>
<path d="M6899 3089 c-49 -18 -63 -95 -33 -183 13 -39 19 -46 36 -40 24 7 95
-62 100 -98 2 -19 9 -23 38 -21 42 2 80 41 80 83 0 32 -15 48 -24 25 -3 -10
-19 -15 -42 -15 -30 0 -44 7 -75 40 -47 49 -60 110 -36 170 13 34 13 39 0 44
-8 3 -15 6 -16 5 -1 0 -14 -5 -28 -10z"/>
<path d="M7982 2782 c35 -42 43 -83 23 -121 -48 -93 -214 -75 -262 29 -10 22
-22 38 -28 36 -5 -1 -11 -24 -13 -49 -4 -64 24 -105 108 -161 43 -28 84 -40
77 -22 -8 21 17 42 63 52 80 18 138 -14 98 -54 -9 -9 -6 -12 15 -12 35 0 88
35 117 77 27 39 23 84 -11 139 -28 46 -114 101 -170 110 l-44 7 27 -31z"/>
<path d="M9080 2630 c0 -5 5 -10 10 -10 6 0 10 5 10 10 0 6 -4 10 -10 10 -5 0
-10 -4 -10 -10z"/>
<path d="M1383 2598 c-13 -6 -23 -18 -23 -26 0 -12 6 -10 25 8 35 33 34 36 -2
18z"/>
<path d="M7332 2532 c4 -19 29 -23 35 -6 2 6 -6 14 -17 17 -16 4 -20 1 -18
-11z"/>
<path d="M11250 2512 c0 -4 9 -13 20 -20 11 -7 20 -9 20 -4 0 4 -9 13 -20 20
-11 7 -20 9 -20 4z"/>
<path d="M1864 2484 c3 -9 6 -18 6 -20 0 -2 7 -4 15 -4 18 0 19 12 3 28 -17
17 -31 15 -24 -4z"/>
<path d="M2225 2319 c-10 -15 3 -25 16 -12 7 7 7 13 1 17 -6 3 -14 1 -17 -5z"/>
<path d="M3446 2321 c-4 -6 -3 -19 3 -28 9 -17 10 -17 17 0 8 21 -10 45 -20
28z"/>
<path d="M7390 2310 c0 -5 12 -10 28 -10 21 0 24 2 12 10 -20 13 -40 13 -40 0z"/>
<path d="M3465 2270 c-15 -16 -16 -23 -6 -33 10 -9 16 -7 32 12 10 13 19 27
19 32 0 16 -26 9 -45 -11z"/>
<path d="M1157 2088 c-6 -137 -6 -90 0 -360 2 -126 6 -228 9 -228 2 0 12 4 22
9 9 5 39 19 67 32 81 39 171 131 213 218 33 70 36 83 36 161 -1 71 -5 93 -28
138 -44 87 -146 142 -264 142 l-51 0 -4 -112z m178 32 c72 -34 96 -65 115
-148 20 -86 -6 -171 -83 -270 -38 -50 -141 -131 -152 -120 -4 3 -9 514 -6 556
2 21 61 13 126 -18z"/>
<path d="M2830 2189 c0 -5 5 -7 10 -4 6 3 10 8 10 11 0 2 -4 4 -10 4 -5 0 -10
-5 -10 -11z"/>
<path d="M9060 2153 c0 -5 7 -18 15 -29 13 -18 14 -18 8 4 -5 22 -23 41 -23
25z"/>
<path d="M3090 2070 c0 -5 5 -10 10 -10 6 0 10 5 10 10 0 6 -4 10 -10 10 -5 0
-10 -4 -10 -10z"/>
<path d="M3182 2059 c2 -7 10 -15 17 -17 8 -3 12 1 9 9 -2 7 -10 15 -17 17 -8
3 -12 -1 -9 -9z"/>
<path d="M3190 2001 c0 -6 5 -13 10 -16 6 -3 10 1 10 9 0 9 -4 16 -10 16 -5 0
-10 -4 -10 -9z"/>
<path d="M11120 1679 c0 -207 -1 -223 -21 -250 -13 -18 -29 -29 -45 -29 -34 0
-30 -11 21 -59 l45 -42 0 -243 c0 -173 -3 -245 -12 -254 -17 -17 -4 -24 23
-13 13 5 51 15 84 22 180 38 261 184 272 489 3 80 9 161 14 179 6 26 5 39 -6
50 -7 9 -23 52 -35 96 -24 91 -54 147 -105 198 -42 42 -128 77 -190 77 l-45 0
0 -221z m111 159 c84 -25 164 -130 185 -243 4 -22 11 -51 17 -65 14 -34 9
-244 -9 -364 -25 -175 -87 -265 -207 -301 l-47 -14 0 228 c0 221 -1 229 -23
262 l-23 34 23 34 c22 33 23 42 23 237 0 146 3 204 11 204 7 0 29 -5 50 -12z"/>
<path d="M353 1713 c-4 -9 2 -30 12 -47 10 -17 34 -62 52 -101 46 -92 58 -105
103 -105 51 0 62 17 58 90 -3 61 -4 62 -50 97 -26 19 -75 45 -108 58 -54 21
-62 22 -67 8z"/>
<path d="M1716 1392 c-3 -6 1 -13 10 -16 23 -9 28 -2 10 13 -8 7 -17 8 -20 3z"/>
<path d="M12205 760 c-8 -13 5 -13 25 0 13 8 13 10 -2 10 -9 0 -20 -4 -23 -10z"/>
</g>
</svg>
